<?xml version="1.0" encoding="UTF-8"?><svg id="a" xmlns="http://www.w3.org/2000/svg" viewBox="0 0 52 42.84"><defs><style>.b{fill:#06bd69;}</style></defs><g><g><path class="b" d="M43.13,42.84H9.48c-.44,0-.8-.36-.8-.8V16.98c0-.24,.1-.46,.28-.61L25.78,2.01c.3-.26,.74-.26,1.04,0l16.82,14.36c.18,.15,.28,.38,.28,.61v25.06c0,.44-.36,.8-.8,.8Zm-32.84-1.61H42.33V17.35L26.31,3.68,10.29,17.35v23.88Z"/><path class="b" d="M9.49,17.75H4.84c-.27,0-.53-.14-.67-.37-.15-.23-.17-.52-.06-.77L9.99,3.43c.13-.29,.42-.48,.73-.48h13.78c.44,0,.8,.36,.8,.8s-.36,.8-.8,.8H11.24l-5.16,11.58h3.41c.44,0,.8,.36,.8,.8s-.36,.8-.8,.8Z"/><path class="b" d="M36.4,4.57h-8.36c-.44,0-.8-.36-.8-.8s.36-.8,.8-.8h8.36c.44,0,.8,.36,.8,.8s-.36,.8-.8,.8Z"/><path class="b" d="M47.88,17.75h-4.73c-.44,0-.8-.36-.8-.8s.36-.8,.8-.8h3.49l-5.16-11.58h-1.65c-.44,0-.8-.36-.8-.8s.36-.8,.8-.8h2.17c.32,0,.61,.19,.73,.48l5.88,13.19c.11,.25,.09,.54-.06,.77-.15,.23-.4,.37-.67,.37Z"/><path class="b" d="M39.71,6.48c-.44,0-.8-.36-.8-.8V1.61h-1.71V5.68c0,.44-.36,.8-.8,.8s-.8-.36-.8-.8V.8c0-.44,.36-.8,.8-.8h3.32c.44,0,.8,.36,.8,.8V5.68c0,.44-.36,.8-.8,.8Z"/><path class="b" d="M29.47,42.84h-5.72c-.44,0-.8-.36-.8-.8v-9.43c0-.44,.36-.8,.8-.8h5.72c.44,0,.8,.36,.8,.8v9.43c0,.44-.36,.8-.8,.8Zm-4.91-1.61h4.11v-7.82h-4.11v7.82Z"/><path class="b" d="M18.15,29.6h-3.62c-.44,0-.8-.36-.8-.8v-3.62c0-.44,.36-.8,.8-.8h3.62c.44,0,.8,.36,.8,.8v3.62c0,.44-.36,.8-.8,.8Zm-2.82-1.61h2.02v-2.02h-2.02v2.02Z"/><path class="b" d="M18.15,22.45h-3.62c-.44,0-.8-.36-.8-.8v-3.62c0-.44,.36-.8,.8-.8h3.62c.44,0,.8,.36,.8,.8v3.62c0,.44-.36,.8-.8,.8Zm-2.82-1.61h2.02v-2.02h-2.02v2.02Z"/><path class="b" d="M28.42,29.6h-3.62c-.44,0-.8-.36-.8-.8v-3.62c0-.44,.36-.8,.8-.8h3.62c.44,0,.8,.36,.8,.8v3.62c0,.44-.36,.8-.8,.8Zm-2.82-1.61h2.02v-2.02h-2.02v2.02Z"/><path class="b" d="M28.42,22.45h-3.62c-.44,0-.8-.36-.8-.8v-3.62c0-.44,.36-.8,.8-.8h3.62c.44,0,.8,.36,.8,.8v3.62c0,.44-.36,.8-.8,.8Zm-2.82-1.61h2.02v-2.02h-2.02v2.02Z"/><path class="b" d="M28.42,14.68h-3.62c-.44,0-.8-.36-.8-.8v-3.62c0-.44,.36-.8,.8-.8h3.62c.44,0,.8,.36,.8,.8v3.62c0,.44-.36,.8-.8,.8Zm-2.82-1.61h2.02v-2.02h-2.02v2.02Z"/><path class="b" d="M38.69,29.6h-3.62c-.44,0-.8-.36-.8-.8v-3.62c0-.44,.36-.8,.8-.8h3.62c.44,0,.8,.36,.8,.8v3.62c0,.44-.36,.8-.8,.8Zm-2.82-1.61h2.02v-2.02h-2.02v2.02Z"/><path class="b" d="M18.15,37.04h-3.62c-.44,0-.8-.36-.8-.8v-3.62c0-.44,.36-.8,.8-.8h3.62c.44,0,.8,.36,.8,.8v3.62c0,.44-.36,.8-.8,.8Zm-2.82-1.61h2.02v-2.02h-2.02v2.02Z"/><path class="b" d="M38.69,37.04h-3.62c-.44,0-.8-.36-.8-.8v-3.62c0-.44,.36-.8,.8-.8h3.62c.44,0,.8,.36,.8,.8v3.62c0,.44-.36,.8-.8,.8Zm-2.82-1.61h2.02v-2.02h-2.02v2.02Z"/><path class="b" d="M38.69,22.45h-3.62c-.44,0-.8-.36-.8-.8v-3.62c0-.44,.36-.8,.8-.8h3.62c.44,0,.8,.36,.8,.8v3.62c0,.44-.36,.8-.8,.8Zm-2.82-1.61h2.02v-2.02h-2.02v2.02Z"/></g><path class="b" d="M51.2,42.84H.8c-.44,0-.8-.36-.8-.8s.36-.8,.8-.8H51.2c.44,0,.8,.36,.8,.8s-.36,.8-.8,.8Z"/></g><g><path class="b" d="M3.66,42.5c-.21,0-.41-.08-.57-.24-.69-.69-1.07-1.6-1.07-2.58,0-1.65,1.13-3.08,2.68-3.51,.31-1.45,1.6-2.54,3.14-2.54,.7,0,1.36,.22,1.92,.64,.36,.27,.43,.77,.16,1.13-.27,.36-.77,.43-1.13,.16-.28-.21-.61-.32-.96-.32-.88,0-1.6,.71-1.6,1.59v.02c0,.42-.32,.77-.74,.8-1.05,.09-1.87,.98-1.87,2.03,0,.54,.21,1.05,.6,1.44,.31,.31,.31,.82,0,1.14-.16,.16-.36,.24-.57,.24Z"/><path class="b" d="M6.27,39.26c-.15,0-.31-.04-.45-.14-.51-.35-1.34-1.28-1.19-2.58,.05-.44,.45-.75,.9-.7,.44,.05,.75,.45,.7,.9-.08,.65,.48,1.05,.49,1.06,.37,.25,.47,.75,.22,1.12-.16,.23-.41,.36-.67,.36Z"/></g><g><path class="b" d="M48.87,42.5c-.21,0-.41-.08-.57-.24-.31-.31-.31-.82,0-1.14,.38-.38,.6-.9,.6-1.44,0-1.05-.82-1.94-1.87-2.03-.42-.03-.74-.38-.74-.8v-.02c0-.88-.72-1.59-1.6-1.59-.35,0-.68,.11-.96,.32-.36,.27-.86,.19-1.13-.16-.27-.36-.19-.86,.16-1.13,.56-.42,1.22-.64,1.92-.64,1.54,0,2.83,1.09,3.14,2.54,1.54,.43,2.68,1.86,2.68,3.51,0,.97-.38,1.89-1.07,2.58-.16,.16-.36,.24-.57,.24Z"/><path class="b" d="M46.71,39.12l-.9-1.33h0s.57-.41,.49-1.06c-.05-.44,.26-.84,.7-.9,.44-.05,.84,.26,.9,.7,.16,1.3-.67,2.24-1.19,2.58Z"/></g></svg>