<?xml version="1.0" encoding="UTF-8"?><svg id="a" xmlns="http://www.w3.org/2000/svg" viewBox="0 0 53.66 42.11"><defs><style>.b{fill:none;stroke:#06bd69;stroke-linecap:round;stroke-linejoin:round;stroke-width:1.66px;}</style></defs><rect class="b" x=".83" y="14.31" width="52" height="5.78"/><rect class="b" x="2.76" y="20.09" width="48.15" height="21.19"/><path class="b" d="M33.57,14.31v-2.89c0-2.66,2.16-4.81,4.81-4.81h0c2.66,0,4.81,2.16,4.81,4.81v2.89"/><path class="b" d="M39.35,14.31v-2.89c0-2.66,2.16-4.81,4.81-4.81h0c2.66,0,4.81,2.16,4.81,4.81v2.89"/><path class="b" d="M17.2,6.61c.53-.53,.53-1.39,0-1.93h0c-.53-.53-.53-1.39,0-1.93h0c.53-.53,.53-1.39,0-1.93"/><path class="b" d="M21.62,8.54c.53-.53,.53-1.39,0-1.93h0c-.53-.53-.53-1.39,0-1.93h0c.53-.53,.53-1.39,0-1.93"/><path class="b" d="M11.99,10.46c.53-.53,.53-1.39,0-1.93h0c-.53-.53-.53-1.39,0-1.93h0c.53-.53,.53-1.39,0-1.93"/><line class="b" x1="45.13" y1="37.42" x2="45.13" y2="41.28"/><line class="b" x1="41.28" y1="37.42" x2="41.28" y2="41.28"/></svg>