<?xml version="1.0" encoding="UTF-8"?><svg id="a" xmlns="http://www.w3.org/2000/svg" viewBox="0 0 43.92 43.92"><defs><style>.c{fill:none;stroke:#06bd69;stroke-miterlimit:10;stroke-width:1.92px;}</style></defs><g id="b"><g><circle class="c" cx="18.57" cy="9.77" r="1.35"/><circle class="c" cx="25.35" cy="9.77" r="1.35"/><circle class="c" cx="18.57" cy="16.54" r="1.35"/><circle class="c" cx="25.35" cy="16.54" r="1.35"/></g><path class="c" d="M6.38,11.8v-2.03C6.38,4.9,13.36,.96,21.96,.96s15.58,3.94,15.58,8.81v2.03"/><path class="c" d="M6.38,26.7v11.52c0,.75,.61,1.35,1.35,1.35h28.45c.75,0,1.35-.61,1.35-1.35v-11.52"/><path class="c" d="M7.73,26.53c-.43,.11-.89,.17-1.35,.17-2.99,0-5.42-2.43-5.42-5.42s2.43-5.42,5.42-5.42,5.42,2.43,5.42,5.42v8.13c0,1.12,.91,2.03,2.03,2.03H30.09c1.12,0,2.03-.91,2.03-2.03v-8.13c0-2.99,2.43-5.42,5.42-5.42s5.42,2.43,5.42,5.42-2.43,5.42-5.42,5.42c-.47,0-.92-.06-1.35-.17"/><path class="c" d="M11.8,25.35s4.74-1.35,10.16-1.35,10.16,1.35,10.16,1.35"/><path class="c" d="M9.09,41.61v.68c0,.37,.3,.68,.68,.68h4.06c.37,0,.68-.3,.68-.68v-.68"/><path class="c" d="M29.41,41.61v.68c0,.37,.3,.68,.68,.68h4.06c.37,0,.68-.3,.68-.68v-.68"/></g></svg>