<?xml version="1.0" encoding="UTF-8"?><svg id="a" xmlns="http://www.w3.org/2000/svg" viewBox="0 0 52 33.55"><defs><style>.b{fill:#06bd69;}</style></defs><g><path class="b" d="M11.13,25.49h-3.88c-2.08,0-3.77-1.69-3.77-3.77V8.26c0-2.08,1.69-3.77,3.77-3.77h3.88c2.08,0,3.77,1.69,3.77,3.77v13.46c0,2.08-1.69,3.77-3.77,3.77ZM7.25,6.08c-1.2,0-2.18,.98-2.18,2.18v13.46c0,1.2,.98,2.18,2.18,2.18h3.88c1.2,0,2.18-.98,2.18-2.18V8.26c0-1.2-.98-2.18-2.18-2.18h-3.88Z"/><g><path class="b" d="M7.11,10.85c.76-.11,2.38-.27,4.21,0,.26,.04,.51-.14,.56-.4l.18-1.02c.04-.23-.09-.46-.3-.54-.81-.32-2.85-.91-5.11,0-.22,.09-.34,.32-.29,.55l.22,1.03c.05,.25,.29,.42,.55,.38Z"/><path class="b" d="M11.33,18.76c-.74,.11-2.45,.29-4.35,0-.22-.03-.43,.11-.48,.32l-.26,1.15c-.05,.2,.06,.41,.26,.49,.79,.31,2.9,.93,5.3,0,.19-.08,.3-.28,.26-.48l-.24-1.14c-.05-.22-.26-.37-.48-.33Z"/></g></g><g><path class="b" d="M28.01,25.49h-3.88c-2.08,0-3.77-1.69-3.77-3.77V8.26c0-2.08,1.69-3.77,3.77-3.77h3.88c2.08,0,3.77,1.69,3.77,3.77v13.46c0,2.08-1.69,3.77-3.77,3.77Zm-3.88-19.41c-1.2,0-2.18,.98-2.18,2.18v13.46c0,1.2,.98,2.18,2.18,2.18h3.88c1.2,0,2.18-.98,2.18-2.18V8.26c0-1.2-.98-2.18-2.18-2.18h-3.88Z"/><g><path class="b" d="M23.99,10.85c.76-.11,2.38-.27,4.21,0,.26,.04,.51-.14,.56-.4l.18-1.02c.04-.23-.09-.46-.3-.54-.81-.32-2.85-.91-5.11,0-.22,.09-.34,.32-.29,.55l.22,1.03c.05,.25,.29,.42,.55,.38Z"/><path class="b" d="M28.21,18.76c-.74,.11-2.45,.29-4.35,0-.22-.03-.43,.11-.48,.32l-.26,1.15c-.05,.2,.06,.41,.26,.49,.79,.31,2.9,.93,5.3,0,.19-.08,.3-.28,.26-.48l-.24-1.14c-.05-.22-.26-.37-.48-.33Z"/></g></g><path class="b" d="M17.6,29.86c-.44,0-.8-.36-.8-.8V.8c0-.44,.36-.8,.8-.8s.8,.36,.8,.8V29.06c0,.44-.36,.8-.8,.8Z"/><path class="b" d="M51.2,29.86H.8c-.44,0-.8-.36-.8-.8V.8C0,.36,.36,0,.8,0s.8,.36,.8,.8V28.26H50.4V.8c0-.44,.36-.8,.8-.8s.8,.36,.8,.8V29.06c0,.44-.36,.8-.8,.8Z"/><path class="b" d="M34.4,29.86c-.44,0-.8-.36-.8-.8V.8c0-.44,.36-.8,.8-.8s.8,.36,.8,.8V29.06c0,.44-.36,.8-.8,.8Z"/><path class="b" d="M51.2,33.55H.8c-.44,0-.8-.36-.8-.8v-3.76c0-.44,.36-.8,.8-.8s.8,.36,.8,.8v2.96H50.4v-2.96c0-.44,.36-.8,.8-.8s.8,.36,.8,.8v3.76c0,.44-.36,.8-.8,.8Z"/><path class="b" d="M45.45,16.41c-.48,.4-1.16,.6-2.05,.6h-1.71v2.95h-1.7V11.77h3.52c.81,0,1.46,.21,1.94,.63,.48,.42,.72,1.08,.72,1.96,0,.97-.24,1.65-.72,2.05Zm-1.31-2.95c-.22-.18-.52-.27-.91-.27h-1.54v2.41h1.54c.39,0,.69-.1,.91-.29,.22-.2,.33-.51,.33-.93s-.11-.73-.33-.91Z"/></svg>