<svg width="32" height="32" viewBox="0 0 32 32" fill="none" xmlns="http://www.w3.org/2000/svg">
<g clip-path="url(#clip0_389_664)">
<path d="M31.7943 15.51L28.3738 12.0894V2.31302C28.3738 1.93079 28.0651 1.61716 27.678 1.61716H23.5616C23.1793 1.61716 22.8657 1.92588 22.8657 2.31302V6.58132L16.4902 0.200923C16.2207 -0.068602 15.7796 -0.068602 15.5101 0.200923L0.205987 15.51C-0.063538 15.7795 -0.063538 16.2205 0.205987 16.49C0.475513 16.7596 0.916554 16.7596 1.18608 16.49L16.0002 1.67596L30.8143 16.49C30.9515 16.6273 31.1279 16.6959 31.3043 16.6959C31.4807 16.6959 31.662 16.6273 31.7943 16.49C32.0639 16.2205 32.0639 15.7795 31.7943 15.51ZM26.987 10.7026L24.2427 7.95835C24.2525 7.91425 24.2574 7.87014 24.2574 7.82114V3.00889H26.987V10.7026Z" fill="#88644A"/>
<path d="M27.6827 15.3041C27.3005 15.3041 26.9868 15.6128 26.9868 16V30.6082H20.2732C19.6361 30.6082 19.0334 30.3681 18.5727 29.932L16.9507 28.3932C17.7838 27.619 19.4156 26.0655 20.925 24.4827C22.3902 22.9439 23.7329 21.3807 24.0956 20.479C25.0511 18.0974 23.8897 15.3874 21.513 14.4318C19.494 13.6233 17.2398 14.3338 16.0196 16.0196C15.5443 15.358 14.9023 14.8288 14.1378 14.4857C13.0058 13.981 11.7415 13.9467 10.5801 14.3877C9.41868 14.8288 8.5023 15.701 7.99755 16.8331C7.4928 17.9651 7.4585 19.2294 7.89954 20.3908C8.60521 22.2432 13.2851 26.8202 14.9415 28.4079L14.0006 29.339L13.9859 29.3488L13.4469 29.8879C12.9813 30.3534 12.359 30.6082 11.7023 30.6082H5.03277V16C5.03277 15.6177 4.72404 15.3041 4.33691 15.3041C3.94977 15.3041 3.64104 15.6128 3.64104 16V31.3041C3.64104 31.6863 3.94977 32 4.33691 32H11.7023C12.7314 32 13.6968 31.603 14.427 30.8778L14.9709 30.3338L15.9608 29.3635L17.6221 30.9366C18.3424 31.6177 19.2882 31.9951 20.2781 31.9951H27.6876C28.0698 31.9951 28.3835 31.6863 28.3835 31.2992V15.9951C28.3835 15.6128 28.0747 15.2992 27.6876 15.2992L27.6827 15.3041ZM15.9314 27.4376C13.3292 24.958 9.68821 21.1994 9.18836 19.8958C8.87963 19.0824 8.90413 18.1954 9.25697 17.4015C9.6098 16.6076 10.2567 15.9951 11.0701 15.6863C11.4475 15.5393 11.8444 15.4707 12.2364 15.4707C12.6873 15.4707 13.1381 15.5638 13.5645 15.755C14.3583 16.1127 14.9709 16.7546 15.2796 17.5681C15.2992 17.622 15.3188 17.6906 15.3384 17.7592C15.4168 18.0631 15.6913 18.2787 16.0098 18.2787C16.3234 18.2787 16.6028 18.068 16.6812 17.7641C16.7008 17.6808 16.7253 17.6024 16.7498 17.5387C17.4211 15.8677 19.3225 15.0591 20.9887 15.7255C22.6548 16.3969 23.4683 18.2983 22.8018 19.9644C22.5176 20.6799 21.317 22.0618 19.9498 23.4928L15.9314 27.4376Z" fill="#88644A"/>
</g>
<defs>
<clipPath id="clip0_389_664">
<rect width="32" height="32" fill="white"/>
</clipPath>
</defs>
</svg>
