<?xml version="1.0" encoding="UTF-8"?><svg id="a" xmlns="http://www.w3.org/2000/svg" viewBox="0 0 64.83 66.25"><defs><style>.c{fill:none;stroke:#06bd69;stroke-miterlimit:10;stroke-width:2.83px;}</style></defs><g id="b"><polyline class="c" points="17.42 22.83 29.42 2.83 44.42 29.83 51.42 29.83 61.81 43.69"/><polyline class="c" points="20.42 17.83 24.42 22.83 28.42 16.83 31.42 18.83"/><polyline class="c" points="7.42 32.83 12.42 24.83 21.42 37.83 30.42 37.83 44.42 52.83 50.42 52.83 53.33 56.72"/><line class="c" x1="51.42" y1="29.83" x2="51.42" y2="37.83"/><path class="c" d="M1.42,10.83s4.16,.26,5,3c0,0,2-3,5-3"/><g><line class="c" x1="30.42" y1="50.83" x2="30.42" y2="59.83"/><polyline class="c" points="27.42 57.83 30.42 54.83 33.42 57.83"/><polyline class="c" points="28.42 52.83 30.42 50.83 32.42 52.83"/></g><g><line class="c" x1="19.42" y1="46.83" x2="19.42" y2="55.83"/><polyline class="c" points="16.42 53.83 19.42 50.83 22.42 53.83"/><polyline class="c" points="17.42 48.83 19.42 46.83 21.42 48.83"/></g><path class="c" d="M36.42,3.09c15.23,1.96,27,14.98,27,30.74,0,17.12-13.88,31-31,31S1.42,50.95,1.42,33.83"/></g></svg>