<?xml version="1.0" encoding="UTF-8"?><svg id="a" xmlns="http://www.w3.org/2000/svg" viewBox="0 0 66.43 63.42"><defs><style>.c{fill:none;stroke:#06bd69;stroke-miterlimit:10;stroke-width:2.83px;}</style></defs><g id="b"><g><path class="c" d="M27.22,42.42l-13,15,3.5,1c2.32,.66,4.73,1,7.14,1h5.36v2"/><polyline class="c" points="30.22 25.42 18.22 41.42 25.39 44.52"/><line class="c" x1="36.22" y1="59.42" x2="36.22" y2="63.42"/><line class="c" x1="30.22" y1="61.42" x2="30.22" y2="63.42"/><polyline class="c" points="37.04 26.51 42.22 24.42 33.22 11.42 24.22 24.42 29.41 26.49"/><path class="c" d="M39.22,42.42l13,15-3.5,1c-2.32,.66-4.73,1-7.14,1h-6.36"/><polyline class="c" points="36.22 25.42 48.22 41.42 41.02 44.5"/></g><polyline class="c" points="25.22 15.42 20.22 8.42 12.22 20.42 17.22 22.42 6.22 36.42 11.22 38.42 2.22 50.42 9.22 53.42"/><polyline class="c" points="41.22 15.42 46.22 8.42 54.22 20.42 49.22 22.42 60.22 36.42 55.22 38.42 64.22 50.42 57.22 53.42"/><path class="c" d="M54.22,1.42s4.16,.26,5,3c0,0,2-3,5-3"/></g></svg>