<?xml version="1.0" encoding="UTF-8"?><svg id="a" xmlns="http://www.w3.org/2000/svg" viewBox="0 0 64.83 65.6"><defs><style>.c{fill:none;stroke:#06bd69;stroke-miterlimit:10;stroke-width:2.83px;}</style></defs><g id="b"><g><path class="c" d="M63.42,41.42c0,8-12,22-12,22,0,0-12-14-12-22,0-6.63,5.37-12,12-12s12,5.37,12,12Z"/><circle class="c" cx="51.42" cy="41.42" r="6"/></g><g><path class="c" d="M21.42,11.42c0,7-10,19-10,19,0,0-10-12-10-19C1.42,5.89,5.89,1.42,11.42,1.42s10,4.48,10,10Z"/><circle class="c" cx="11.42" cy="11.42" r="5"/></g><path class="c" d="M43.42,63.42H11.42c-5.5,0-10-4.5-10-10h0c0-5.5,4.5-10,10-10h15.5c3.57,0,6.5-2.92,6.5-6.5h0c0-3.58-2.93-6.5-6.5-6.5h-8.5"/></g></svg>