<?xml version="1.0" encoding="UTF-8"?><svg id="a" xmlns="http://www.w3.org/2000/svg" viewBox="0 0 60 64.6"><defs><style>.c{fill:none;stroke:#06bd69;stroke-miterlimit:10;stroke-width:2.83px;}</style></defs><g id="b"><path class="c" d="M18.72,63.42c-4.05-2.69-6.72-7.28-6.72-12.5,0-3.8,1.43-7.26,3.76-9.91l.12-.09c-.08,.4-.12,.82-.12,1.25,0,3.45,2.8,6.25,6.25,6.25s6.25-2.8,6.25-6.25c0-1.94-.68-3.29-1.25-5-2.5-7.5,6.25-13.75,6.25-13.75,0,12.5,8.75,16.25,8.75,27.5,0,5.22-2.67,9.81-6.72,12.5"/><g><g><path class="c" d="M9.5,1.42h15c3.04,0,5.5,3.58,5.5,8s-2.46,8-5.5,8H9.5"/><ellipse class="c" cx="9.5" cy="9.42" rx="5.5" ry="8"/></g><line class="c" y1="9.42" x2="9" y2="9.42"/><line class="c" x1="30" y1="9.42" x2="60" y2="9.42"/><line class="c" x1="49" y1="9.42" x2="40" y2="16.42"/><line class="c" x1="54" y1="9.42" x2="50" y2="5.42"/></g></g></svg>