<svg width="46" height="47" viewBox="0 0 46 47" fill="none" xmlns="http://www.w3.org/2000/svg">
<path d="M45 29.6948C45 35.3723 36.4839 45.3077 36.4839 45.3077C36.4839 45.3077 27.9677 35.3723 27.9677 29.6948C27.9677 24.9897 31.7787 21.1787 36.4839 21.1787C41.189 21.1787 45 24.9897 45 29.6948Z" stroke="#88644A" stroke-width="2" stroke-miterlimit="10"/>
<path d="M36.4839 33.9527C38.8355 33.9527 40.7419 32.0463 40.7419 29.6946C40.7419 27.3429 38.8355 25.4365 36.4839 25.4365C34.1322 25.4365 32.2258 27.3429 32.2258 29.6946C32.2258 32.0463 34.1322 33.9527 36.4839 33.9527Z" stroke="#88644A" stroke-width="2" stroke-miterlimit="10"/>
<path d="M15.1935 8.40451C15.1935 13.3723 8.09677 21.8884 8.09677 21.8884C8.09677 21.8884 1 13.3723 1 8.40451C1 4.48 4.17226 1.30774 8.09677 1.30774C12.0213 1.30774 15.1935 4.48709 15.1935 8.40451Z" stroke="#88644A" stroke-width="2" stroke-miterlimit="10"/>
<path d="M8.09679 11.9527C10.0565 11.9527 11.6452 10.3641 11.6452 8.40434C11.6452 6.44462 10.0565 4.85596 8.09679 4.85596C6.13707 4.85596 4.5484 6.44462 4.5484 8.40434C4.5484 10.3641 6.13707 11.9527 8.09679 11.9527Z" stroke="#88644A" stroke-width="2" stroke-miterlimit="10"/>
<path d="M30.8065 45.3078H8.09677C4.19355 45.3078 1 42.1142 1 38.211C1 34.3078 4.19355 31.1142 8.09677 31.1142H19.0968C21.6303 31.1142 23.7097 29.042 23.7097 26.5013C23.7097 23.9607 21.6303 21.8884 19.0968 21.8884H13.0645" stroke="#88644A" stroke-width="2" stroke-miterlimit="10"/>
</svg>
