<svg width="32" height="32" viewBox="0 0 32 32" fill="none" xmlns="http://www.w3.org/2000/svg">
<g clip-path="url(#clip0_389_657)">
<path d="M16.5091 5.61353C13.2556 5.61353 10.6136 8.26029 10.6136 11.509C10.6136 14.7577 13.2604 17.4045 16.5091 17.4045C19.7578 17.4045 22.4046 14.7577 22.4046 11.509C22.4046 8.26029 19.7578 5.61353 16.5091 5.61353ZM16.5091 15.718C14.192 15.718 12.3049 13.8309 12.3049 11.5138C12.3049 9.19668 14.192 7.30955 16.5091 7.30955C18.8262 7.30955 20.7133 9.19668 20.7133 11.5138C20.7133 13.8309 18.8262 15.718 16.5091 15.718Z" fill="#88644A"/>
<path d="M16.5091 0C10.1645 0 5 5.16453 5 11.5091C5 13.7068 5.62108 15.8376 6.79636 17.6769C6.81069 17.7008 6.82502 17.7247 6.83935 17.7486L15.802 31.6082C15.9597 31.8471 16.2272 31.9952 16.5139 31.9952C16.8005 31.9952 17.0681 31.8519 17.2257 31.6082L26.1884 17.7486C26.1884 17.7486 26.2171 17.7008 26.2314 17.6769C27.4067 15.8376 28.0278 13.702 28.0278 11.5091C28.0182 5.16453 22.8585 0 16.5091 0ZM24.7551 16.8361L24.5736 17.1179C24.5736 17.1179 24.5545 17.1514 24.5449 17.1657L16.5091 29.5969L8.47328 17.1657C8.47328 17.1657 8.45417 17.1323 8.44461 17.1132L8.26306 16.8265C7.23589 15.2451 6.69125 13.4058 6.69125 11.5043C6.69125 6.09615 11.0961 1.69125 16.5091 1.69125C21.9221 1.69125 26.327 6.09615 26.327 11.5091C26.327 13.4058 25.7823 15.2451 24.7551 16.8361Z" fill="#88644A"/>
</g>
<defs>
<clipPath id="clip0_389_657">
<rect width="23.0182" height="32" fill="white" transform="translate(5)"/>
</clipPath>
</defs>
</svg>
