<svg width="46" height="47" viewBox="0 0 46 47" fill="none" xmlns="http://www.w3.org/2000/svg">
<path d="M23 18.3401C26.1355 18.3401 28.6774 15.7982 28.6774 12.6626C28.6774 9.5271 26.1355 6.98523 23 6.98523C19.8644 6.98523 17.3226 9.5271 17.3226 12.6626C17.3226 15.7982 19.8644 18.3401 23 18.3401Z" stroke="#88644A" stroke-width="2" stroke-linecap="round" stroke-linejoin="round"/>
<path d="M34.3548 12.6626C34.3548 19.7594 23 31.1142 23 31.1142C23 31.1142 11.6451 19.7594 11.6451 12.6626C11.6451 6.38903 16.7264 1.30774 23 1.30774C29.2735 1.30774 34.3548 6.38903 34.3548 12.6626Z" stroke="#88644A" stroke-width="2" stroke-linecap="round" stroke-linejoin="round"/>
<path d="M13.0645 40.34L15.1935 29.6948" stroke="#88644A" stroke-width="2" stroke-linecap="round" stroke-linejoin="round"/>
<path d="M32.9355 40.34L30.8065 29.6948" stroke="#88644A" stroke-width="2" stroke-linecap="round" stroke-linejoin="round"/>
<path d="M11.6452 24.7271L7.3871 26.1464L1 45.3077L13.0645 40.34L23 44.598L32.9355 40.34L45 45.3077L38.6129 26.1464L34.3548 24.7271" stroke="#88644A" stroke-width="2" stroke-linecap="square" stroke-linejoin="round"/>
</svg>
