<svg width="32" height="32" viewBox="0 0 32 32" fill="none" xmlns="http://www.w3.org/2000/svg">
<g clip-path="url(#clip0_389_632)">
<path d="M24.3258 15.9999C21.0244 15.9999 18.5339 14.7714 18.5339 13.1428C18.5339 11.5142 21.0244 10.2856 24.3258 10.2856C27.6271 10.2856 30.1176 11.5142 30.1176 13.1428C30.1176 14.7714 27.6271 15.9999 24.3258 15.9999ZM24.3258 11.4285C21.4979 11.4285 19.6923 12.4442 19.6923 13.1428C19.6923 13.8414 21.4979 14.8571 24.3258 14.8571C27.1537 14.8571 28.9593 13.8414 28.9593 13.1428C28.9593 12.4442 27.1537 11.4285 24.3258 11.4285Z" fill="#88644A"/>
<path d="M24.3258 19.4286C21.0244 19.4286 18.5339 18.2 18.5339 16.5714C18.5339 16.2557 18.7931 16 19.1131 16C19.4331 16 19.6923 16.2557 19.6923 16.5714C19.6923 17.27 21.4979 18.2857 24.3258 18.2857C27.1537 18.2857 28.9593 17.27 28.9593 16.5714C28.9593 16.2557 29.2185 16 29.5385 16C29.8585 16 30.1176 16.2557 30.1176 16.5714C30.1176 18.2 27.6271 19.4286 24.3258 19.4286Z" fill="#88644A"/>
<path d="M24.3258 22.857C24.1231 22.857 23.9146 22.857 23.7119 22.8441C23.3933 22.8256 23.15 22.5541 23.1689 22.2384C23.1877 21.9227 23.4643 21.6813 23.7828 21.7027C23.9508 21.7127 24.1332 21.7127 24.3272 21.7127C27.1551 21.7127 28.9607 20.697 28.9607 19.9984C28.9607 19.6827 29.2199 19.427 29.5399 19.427C29.8599 19.427 30.1191 19.6827 30.1191 19.9984C30.1191 21.627 27.6286 22.8556 24.3272 22.8556L24.3258 22.857Z" fill="#88644A"/>
<path d="M19.1131 18.2856C18.7931 18.2856 18.5339 18.0299 18.5339 17.7141V13.1427C18.5339 12.827 18.7931 12.5713 19.1131 12.5713C19.4331 12.5713 19.6923 12.827 19.6923 13.1427V17.7141C19.6923 18.0299 19.4331 18.2856 19.1131 18.2856Z" fill="#88644A"/>
<path d="M24.3258 26.2855C24.1231 26.2855 23.9146 26.2855 23.7119 26.2727C23.3933 26.2541 23.15 25.9827 23.1689 25.667C23.1877 25.3513 23.4643 25.1098 23.7828 25.1313C23.9508 25.1413 24.1332 25.1413 24.3272 25.1413C27.1551 25.1413 28.9607 24.1255 28.9607 23.427V13.1413C28.9607 12.8255 29.2199 12.5698 29.5399 12.5698C29.8599 12.5698 30.1191 12.8255 30.1191 13.1413V23.427C30.1191 25.0555 27.6286 26.2841 24.3272 26.2841L24.3258 26.2855Z" fill="#88644A"/>
<path d="M19.3448 24.6798C19.0248 24.6798 18.7656 24.4298 18.7656 24.1141V24.1027C18.7656 23.787 19.0248 23.5312 19.3448 23.5312C19.6648 23.5312 19.924 23.787 19.924 24.1027C19.924 24.4184 19.6648 24.6798 19.3448 24.6798Z" fill="#88644A"/>
<path d="M16.2172 25.1428C12.9159 25.1428 10.4254 23.9142 10.4254 22.2856C10.4254 20.657 12.9159 19.4285 16.2172 19.4285C19.5186 19.4285 22.0091 20.657 22.0091 22.2856C22.0091 23.9142 19.5186 25.1428 16.2172 25.1428ZM16.2172 20.5713C13.3893 20.5713 11.5837 21.587 11.5837 22.2856C11.5837 22.9842 13.3893 23.9999 16.2172 23.9999C19.0451 23.9999 20.8507 22.9842 20.8507 22.2856C20.8507 21.587 19.0451 20.5713 16.2172 20.5713Z" fill="#88644A"/>
<path d="M16.2172 28.5714C12.9159 28.5714 10.4254 27.3428 10.4254 25.7143C10.4254 25.3985 10.6845 25.1428 11.0045 25.1428C11.3245 25.1428 11.5837 25.3985 11.5837 25.7143C11.5837 26.4128 13.3893 27.4285 16.2172 27.4285C19.0451 27.4285 20.8507 26.4128 20.8507 25.7143C20.8507 25.3985 21.1099 25.1428 21.4299 25.1428C21.7499 25.1428 22.0091 25.3985 22.0091 25.7143C22.0091 27.3428 19.5186 28.5714 16.2172 28.5714Z" fill="#88644A"/>
<path d="M16.2172 31.9998C12.9159 31.9998 10.4254 30.7713 10.4254 29.1427V22.2855C10.4254 21.9698 10.6845 21.7141 11.0045 21.7141C11.3245 21.7141 11.5837 21.9698 11.5837 22.2855V29.1427C11.5837 29.8413 13.3893 30.857 16.2172 30.857C19.0451 30.857 20.8507 29.8413 20.8507 29.1427V22.2855C20.8507 21.9698 21.1099 21.7141 21.4299 21.7141C21.7499 21.7141 22.0091 21.9698 22.0091 22.2855V29.1427C22.0091 30.7713 19.5186 31.9998 16.2172 31.9998Z" fill="#88644A"/>
<path d="M19.1131 9.14286C18.7931 9.14286 18.5339 8.88714 18.5339 8.57143V1.14286H7.52941C7.20941 1.14286 6.95023 0.887143 6.95023 0.571429C6.95023 0.255714 7.20941 0 7.52941 0H19.1131C19.4331 0 19.6923 0.255714 19.6923 0.571429V8.57143C19.6923 8.88714 19.4331 9.14286 19.1131 9.14286Z" fill="#88644A"/>
<path d="M8.62986 27.4286H0.579186C0.259186 27.4286 0 27.1729 0 26.8572V7.42861C0 7.11289 0.259186 6.85718 0.579186 6.85718C0.899186 6.85718 1.15837 7.11289 1.15837 7.42861V26.2857H8.62986C8.94986 26.2857 9.20905 26.5415 9.20905 26.8572C9.20905 27.1729 8.94986 27.4286 8.62986 27.4286Z" fill="#88644A"/>
<path d="M7.52936 8.00006H0.579137C0.344567 8.00006 0.133164 7.86149 0.0433902 7.64721C-0.0463836 7.43435 0.00284718 7.18863 0.169363 7.02435L7.11959 0.167205C7.28466 0.00291967 7.53516 -0.0456517 7.7509 0.0429197C7.9681 0.131491 8.10855 0.340063 8.10855 0.571491V7.42863C8.10855 7.74435 7.84936 8.00006 7.52936 8.00006ZM1.97787 6.85721H6.95018V1.95149L1.97787 6.85721Z" fill="#88644A"/>
<path d="M5.2141 20.5715C4.8941 20.5715 4.63492 20.3157 4.63492 20V15.4286C4.63492 15.1129 4.8941 14.8572 5.2141 14.8572C5.5341 14.8572 5.79329 15.1129 5.79329 15.4286V20C5.79329 20.3157 5.5341 20.5715 5.2141 20.5715Z" fill="#88644A"/>
<path d="M8.68923 20.5715C8.36923 20.5715 8.11005 20.3158 8.11005 20.0001V13.143C8.11005 12.8272 8.36923 12.5715 8.68923 12.5715C9.00923 12.5715 9.26842 12.8272 9.26842 13.143V20.0001C9.26842 20.3158 9.00923 20.5715 8.68923 20.5715Z" fill="#88644A"/>
<path d="M12.1643 18.2856C11.8443 18.2856 11.5851 18.0299 11.5851 17.7142V10.8571C11.5851 10.5414 11.8443 10.2856 12.1643 10.2856C12.4843 10.2856 12.7435 10.5414 12.7435 10.8571V17.7142C12.7435 18.0299 12.4843 18.2856 12.1643 18.2856Z" fill="#88644A"/>
<path d="M15.6395 18.2857C15.3195 18.2857 15.0603 18.03 15.0603 17.7143V8.57143C15.0603 8.25571 15.3195 8 15.6395 8C15.9595 8 16.2186 8.25571 16.2186 8.57143V17.7143C16.2186 18.03 15.9595 18.2857 15.6395 18.2857Z" fill="#88644A"/>
<path d="M2.89591 14.86C2.72794 14.86 2.56143 14.7886 2.44704 14.65C2.24432 14.4057 2.28052 14.0457 2.52812 13.8457L15.2717 3.55716C15.5193 3.35716 15.8841 3.39287 16.0869 3.63716C16.2896 3.88145 16.2534 4.24145 16.0058 4.44145L3.26224 14.73C3.15509 14.8172 3.02478 14.8586 2.89591 14.8586V14.86Z" fill="#88644A"/>
<path d="M15.0588 7.42868C15.0212 7.42868 14.9835 7.42439 14.9444 7.41725C14.6302 7.35582 14.4275 7.05439 14.4898 6.74439L14.9299 4.5701H12.7406C12.4206 4.5701 12.1614 4.31439 12.1614 3.99867C12.1614 3.68296 12.4206 3.42725 12.7406 3.42725H15.6366C15.8103 3.42725 15.9739 3.50439 16.084 3.63582C16.194 3.76867 16.2375 3.94296 16.2042 4.1101L15.625 6.96725C15.5699 7.23868 15.3281 7.42725 15.0574 7.42725L15.0588 7.42868Z" fill="#88644A"/>
<path d="M8.68781 24H2.89596C2.57596 24 2.31677 23.7443 2.31677 23.4286C2.31677 23.1129 2.57596 22.8572 2.89596 22.8572H8.68781C9.00781 22.8572 9.267 23.1129 9.267 23.4286C9.267 23.7443 9.00781 24 8.68781 24Z" fill="#88644A"/>
</g>
<defs>
<clipPath id="clip0_389_632">
<rect width="30.1176" height="32" fill="white"/>
</clipPath>
</defs>
</svg>
