<svg width="32" height="32" viewBox="0 0 32 32" fill="none" xmlns="http://www.w3.org/2000/svg">
<g clip-path="url(#clip0_389_670)">
<path d="M18.5 28.2953C16.9231 28.2953 13.8 26.2953 13.4492 26.0672C13.2123 25.9125 13.1077 25.6141 13.1969 25.3437C13.3785 24.7891 14.0385 23.8516 15.3538 23.8516C16.3338 23.8516 17.8538 24.2047 18.4277 24.3469L21.2769 22.9C21.6923 22.4812 23.5754 20.75 26.2969 20.75C28.8061 20.75 31.0185 23.0906 31.8538 24.0969C32.0723 24.3609 32.04 24.7547 31.78 24.9781C31.52 25.2 31.1323 25.1672 30.9123 24.9031C30.3477 24.2219 28.3446 22 26.2969 22C23.8169 22 22.1123 23.8187 22.0954 23.8375C22.0461 23.8922 21.9846 23.9375 21.92 23.9703L18.7738 25.5672C18.64 25.6344 18.4877 25.6516 18.3431 25.6125C18.3231 25.6078 16.3954 25.1 15.3523 25.1C15.0231 25.1 14.7954 25.2141 14.6415 25.3469C15.8954 26.1078 17.7 27.0453 18.4969 27.0453C19.2938 27.0453 21.6615 26.3 22.4923 26.0141C22.8138 25.9031 23.1631 26.0781 23.2738 26.4047C23.3831 26.7313 23.2108 27.0859 22.8892 27.1984C22.5646 27.3109 19.6785 28.2969 18.4969 28.2969L18.5 28.2953Z" fill="#88644A"/>
<path d="M28.6569 32C28.4584 32 28.2631 31.9031 28.1446 31.7218C28.1277 31.6953 27.0584 30.125 25.3154 30.125C24.6046 30.125 23.3461 30.4109 22.1292 30.6875C20.64 31.025 19.1 31.375 17.9769 31.375C16.3938 31.375 12.1846 28.7296 11.3569 28.1999C11.3077 28.1687 11.2615 28.1296 11.2231 28.0843L7.53845 23.8249C7.33999 23.5953 7.33383 23.2531 7.5246 23.0156C7.58768 22.9375 8.16614 22.2546 9.0646 22.2546C9.96306 22.2546 11.1154 23.0859 12.1892 23.8906C12.7215 24.2906 13.5277 24.8937 13.7877 24.9171C14.1277 24.9171 14.4 25.1968 14.4 25.5421C14.4 25.8875 14.1215 26.1671 13.7815 26.1671C13.1831 26.1671 12.5092 25.6843 11.4584 24.8968C10.6754 24.3093 9.60153 23.5046 9.0646 23.5046C9.01383 23.5046 8.9646 23.5124 8.91691 23.5249L12.0892 27.1906C14.0277 28.425 17.0877 30.125 17.9769 30.125C18.9646 30.125 20.4369 29.7906 21.8615 29.4671C23.2031 29.1624 24.4708 28.875 25.3169 28.875C27.7369 28.875 29.1138 30.9421 29.1708 31.0296C29.3584 31.3171 29.2815 31.7046 28.9984 31.8953C28.8938 31.9656 28.7754 32 28.6584 32H28.6569Z" fill="#88644A"/>
<path d="M13.7815 25.9188C13.5631 25.9188 13.3508 25.8001 13.24 25.5907L11.6815 22.6673C11.1431 21.8454 10.8677 21.5376 10.3492 21.4282L10.6739 23.0751C10.74 23.4142 10.5246 23.7423 10.1908 23.811C9.85847 23.8782 9.53385 23.6595 9.46616 23.3204L8.98462 20.8704C8.94924 20.6876 8.99539 20.497 9.11231 20.3517C9.22924 20.2063 9.40308 20.1235 9.5877 20.1235C11.2215 20.1235 11.8031 20.5923 12.7215 22.0001C12.7323 22.0157 12.7415 22.0313 12.7492 22.0485L14.3215 24.9954C14.4831 25.2985 14.3723 25.6782 14.0739 25.8423C13.98 25.8938 13.88 25.9173 13.7815 25.9173V25.9188Z" fill="#88644A"/>
<path d="M19.1754 10.9375C18.9077 10.9375 18.6615 10.7578 18.5831 10.4828L17.8154 7.74219L13.2877 3.24844H0.615385C0.275385 3.25 0 2.97031 0 2.625C0 2.27969 0.275385 2 0.615385 2H13.5385C13.6985 2 13.8538 2.06406 13.9692 2.17812L18.7938 6.96563C18.8708 7.04219 18.9262 7.1375 18.9554 7.24219L19.7677 10.1422C19.86 10.4734 19.6708 10.8203 19.3446 10.9141C19.2877 10.9297 19.2323 10.9375 19.1754 10.9375Z" fill="#88644A"/>
<path d="M15.7554 15.75C15.6169 15.75 15.4769 15.7297 15.3385 15.6859L12.9323 14.8953C12.8831 14.8797 12.8139 14.8578 12.7385 14.8187C12.3523 14.6687 12 14.4687 11.6908 14.2234L11.5139 14.0922C11.5139 14.0922 11.5031 14.0844 11.4985 14.0797L10.9815 13.6672C9.9277 12.8344 8.59693 12.375 7.23847 12.375C6.27847 12.375 5.34462 12.0359 4.6077 11.4203C4.58924 11.4047 4.57231 11.389 4.55693 11.3719L1.5877 8.24998H0.618467C0.278467 8.24998 0.00308228 7.97029 0.00308228 7.62498C0.00308228 7.27967 0.278467 6.99998 0.618467 6.99998H1.84924C2.01693 6.99998 2.17539 7.06873 2.29231 7.19061L5.41847 10.4765C5.93077 10.8953 6.57693 11.125 7.24001 11.125C8.87231 11.125 10.4708 11.6781 11.7415 12.6812L12.4292 13.2203C12.4292 13.2203 12.44 13.2281 12.4446 13.2328C12.6677 13.4109 12.9262 13.5547 13.2139 13.6625C13.24 13.6719 13.2646 13.6844 13.2892 13.6969L13.3123 13.7047L15.7123 14.4922C15.7569 14.5062 15.8308 14.5047 15.86 14.4453C15.8631 14.439 15.8662 14.4344 15.8692 14.4281C16.0262 14.1328 16.0477 13.7703 15.9308 13.4344C15.8139 13.1265 15.5523 12.8562 15.2185 12.7094L12.9139 11.739C12.7631 11.6765 12.6446 11.5547 12.5815 11.4015L11.1292 7.86404C11.0415 7.64842 11.0785 7.40154 11.2246 7.22342C11.3723 7.04529 11.6046 6.96404 11.8277 7.01404L14.4739 7.60154C14.6369 7.63748 14.78 7.74061 14.8677 7.88592L16.3077 10.2734C16.4846 10.5672 16.3939 10.9531 16.1046 11.1328C15.8154 11.3125 15.4354 11.2203 15.2585 10.9265L13.9554 8.76717L12.7185 8.49217L13.6185 10.6844L15.6985 11.5609C16.3415 11.8453 16.8431 12.3687 17.0831 13.0015C17.3231 13.6812 17.2739 14.4094 16.9554 15.0156C16.7231 15.4781 16.2569 15.7515 15.7585 15.7515L15.7554 15.75Z" fill="#88644A"/>
<path d="M17.8461 20.7501C14.7923 20.7501 12.3077 18.2267 12.3077 15.1251C12.3077 14.7845 12.3354 14.4626 12.3923 14.1407C12.4523 13.8001 12.7723 13.5735 13.1061 13.6345C13.44 13.6954 13.6631 14.0204 13.6046 14.3595C13.5615 14.6079 13.54 14.8595 13.54 15.1251C13.54 17.5376 15.4723 19.5001 17.8477 19.5001C20.2231 19.5001 22.1554 17.5376 22.1554 15.1251C22.1554 13.1688 20.8631 11.4376 19.0123 10.9142C18.6492 10.8063 18.2492 10.7501 17.8477 10.7501C17.2031 10.7501 16.5984 10.8876 16.0508 11.161C16.0446 11.1642 16.0369 11.1673 16.0292 11.1704C15.5554 11.3845 15.1108 11.7001 14.7431 12.0845C14.5061 12.3329 14.1169 12.3376 13.8723 12.097C13.6277 11.8563 13.6231 11.461 13.86 11.2126C14.3338 10.7173 14.9061 10.3095 15.5184 10.0313C16.2338 9.67666 17.0169 9.49854 17.8461 9.49854C18.3646 9.49854 18.8846 9.57197 19.3492 9.71103C21.7215 10.3813 23.3846 12.6079 23.3846 15.1235C23.3846 18.2251 20.9 20.7485 17.8461 20.7485V20.7501Z" fill="#88644A"/>
</g>
<defs>
<clipPath id="clip0_389_670">
<rect width="32" height="30" fill="white" transform="translate(0 2)"/>
</clipPath>
</defs>
</svg>
