<?xml version="1.0" encoding="UTF-8"?><svg id="a" xmlns="http://www.w3.org/2000/svg" viewBox="0 0 19.13 19.13"><defs><style>.b{fill:none;fill-rule:evenodd;stroke:#000;stroke-linecap:round;stroke-linejoin:round;stroke-width:1.13px;}</style></defs><path class="b" d="M5.63,13.5C3.87,11.77,.9,8.09,.59,5.17c-.11-1,.14-1.88,.66-2.63,.56-.81,1.43-1.48,2.34-1.84,.64-.25,1.21-.21,1.59,.62l1.8,3.88c.35,.75-.58,1.46-1.11,2.21-.34,.47-.39,.6-.11,1.11,.37,.66,1.21,1.72,2.17,2.69,.97,.96,2.03,1.8,2.69,2.17,.51,.28,.63,.23,1.11-.11,.74-.53,1.45-1.46,2.21-1.11l3.88,1.8c.83,.39,.87,.96,.62,1.59-.35,.91-1.03,1.78-1.84,2.34-.75,.52-1.63,.76-2.63,.66-2.93-.31-6.6-3.28-8.34-5.04Z"/></svg>