<svg width="32" height="30" viewBox="0 0 32 30" fill="none" xmlns="http://www.w3.org/2000/svg">
<g clip-path="url(#clip0_389_671)">
<path d="M18.5 26.2953C16.9231 26.2953 13.8 24.2953 13.4492 24.0672C13.2123 23.9125 13.1077 23.6141 13.1969 23.3437C13.3785 22.7891 14.0385 21.8516 15.3538 21.8516C16.3338 21.8516 17.8538 22.2047 18.4277 22.3469L21.2769 20.9C21.6923 20.4812 23.5754 18.75 26.2969 18.75C28.8061 18.75 31.0185 21.0906 31.8538 22.0969C32.0723 22.3609 32.04 22.7547 31.78 22.9781C31.52 23.2 31.1323 23.1672 30.9123 22.9031C30.3477 22.2219 28.3446 20 26.2969 20C23.8169 20 22.1123 21.8187 22.0954 21.8375C22.0461 21.8922 21.9846 21.9375 21.92 21.9703L18.7738 23.5672C18.64 23.6344 18.4877 23.6516 18.3431 23.6125C18.3231 23.6078 16.3954 23.1 15.3523 23.1C15.0231 23.1 14.7954 23.2141 14.6415 23.3469C15.8954 24.1078 17.7 25.0453 18.4969 25.0453C19.2938 25.0453 21.6615 24.3 22.4923 24.0141C22.8138 23.9031 23.1631 24.0781 23.2738 24.4047C23.3831 24.7313 23.2108 25.0859 22.8892 25.1984C22.5646 25.3109 19.6785 26.2969 18.4969 26.2969L18.5 26.2953Z" fill="#88644A"/>
<path d="M28.6569 30C28.4584 30 28.2631 29.9031 28.1446 29.7218C28.1277 29.6953 27.0584 28.125 25.3154 28.125C24.6046 28.125 23.3461 28.4109 22.1292 28.6875C20.64 29.025 19.1 29.375 17.9769 29.375C16.3938 29.375 12.1846 26.7296 11.3569 26.1999C11.3077 26.1687 11.2615 26.1296 11.2231 26.0843L7.53845 21.8249C7.33999 21.5953 7.33383 21.2531 7.5246 21.0156C7.58768 20.9375 8.16614 20.2546 9.0646 20.2546C9.96306 20.2546 11.1154 21.0859 12.1892 21.8906C12.7215 22.2906 13.5277 22.8937 13.7877 22.9171C14.1277 22.9171 14.4 23.1968 14.4 23.5421C14.4 23.8875 14.1215 24.1671 13.7815 24.1671C13.1831 24.1671 12.5092 23.6843 11.4584 22.8968C10.6754 22.3093 9.60153 21.5046 9.0646 21.5046C9.01383 21.5046 8.9646 21.5124 8.91691 21.5249L12.0892 25.1906C14.0277 26.425 17.0877 28.125 17.9769 28.125C18.9646 28.125 20.4369 27.7906 21.8615 27.4671C23.2031 27.1624 24.4708 26.875 25.3169 26.875C27.7369 26.875 29.1138 28.9421 29.1708 29.0296C29.3584 29.3171 29.2815 29.7046 28.9984 29.8953C28.8938 29.9656 28.7754 30 28.6584 30H28.6569Z" fill="#88644A"/>
<path d="M13.7815 23.9188C13.5631 23.9188 13.3508 23.8001 13.24 23.5907L11.6815 20.6673C11.1431 19.8454 10.8677 19.5376 10.3492 19.4282L10.6739 21.0751C10.74 21.4142 10.5246 21.7423 10.1908 21.811C9.85847 21.8782 9.53385 21.6595 9.46616 21.3204L8.98462 18.8704C8.94924 18.6876 8.99539 18.497 9.11231 18.3517C9.22924 18.2063 9.40308 18.1235 9.5877 18.1235C11.2215 18.1235 11.8031 18.5923 12.7215 20.0001C12.7323 20.0157 12.7415 20.0313 12.7492 20.0485L14.3215 22.9954C14.4831 23.2985 14.3723 23.6782 14.0739 23.8423C13.98 23.8938 13.88 23.9173 13.7815 23.9173V23.9188Z" fill="#88644A"/>
<path d="M19.1754 8.9375C18.9077 8.9375 18.6615 8.75781 18.5831 8.48281L17.8154 5.74219L13.2877 1.24844H0.615385C0.275385 1.25 0 0.970312 0 0.625C0 0.279687 0.275385 0 0.615385 0H13.5385C13.6985 0 13.8538 0.0640625 13.9692 0.178125L18.7938 4.96563C18.8708 5.04219 18.9262 5.1375 18.9554 5.24219L19.7677 8.14219C19.86 8.47344 19.6708 8.82031 19.3446 8.91406C19.2877 8.92969 19.2323 8.9375 19.1754 8.9375Z" fill="#88644A"/>
<path d="M15.7554 13.75C15.6169 13.75 15.4769 13.7297 15.3385 13.6859L12.9323 12.8953C12.8831 12.8797 12.8139 12.8578 12.7385 12.8187C12.3523 12.6687 12 12.4687 11.6908 12.2234L11.5139 12.0922C11.5139 12.0922 11.5031 12.0844 11.4985 12.0797L10.9815 11.6672C9.9277 10.8344 8.59693 10.375 7.23847 10.375C6.27847 10.375 5.34462 10.0359 4.6077 9.42029C4.58924 9.40467 4.57231 9.38904 4.55693 9.37186L1.5877 6.24998H0.618467C0.278467 6.24998 0.00308228 5.97029 0.00308228 5.62498C0.00308228 5.27967 0.278467 4.99998 0.618467 4.99998H1.84924C2.01693 4.99998 2.17539 5.06873 2.29231 5.19061L5.41847 8.47654C5.93077 8.89529 6.57693 9.12498 7.24001 9.12498C8.87231 9.12498 10.4708 9.67811 11.7415 10.6812L12.4292 11.2203C12.4292 11.2203 12.44 11.2281 12.4446 11.2328C12.6677 11.4109 12.9262 11.5547 13.2139 11.6625C13.24 11.6719 13.2646 11.6844 13.2892 11.6969L13.3123 11.7047L15.7123 12.4922C15.7569 12.5062 15.8308 12.5047 15.86 12.4453C15.8631 12.439 15.8662 12.4344 15.8692 12.4281C16.0262 12.1328 16.0477 11.7703 15.9308 11.4344C15.8139 11.1265 15.5523 10.8562 15.2185 10.7094L12.9139 9.73904C12.7631 9.67654 12.6446 9.55467 12.5815 9.40154L11.1292 5.86404C11.0415 5.64842 11.0785 5.40154 11.2246 5.22342C11.3723 5.04529 11.6046 4.96404 11.8277 5.01404L14.4739 5.60154C14.6369 5.63748 14.78 5.74061 14.8677 5.88592L16.3077 8.27342C16.4846 8.56717 16.3939 8.95311 16.1046 9.13279C15.8154 9.31248 15.4354 9.22029 15.2585 8.92654L13.9554 6.76717L12.7185 6.49217L13.6185 8.68436L15.6985 9.56092C16.3415 9.84529 16.8431 10.3687 17.0831 11.0015C17.3231 11.6812 17.2739 12.4094 16.9554 13.0156C16.7231 13.4781 16.2569 13.7515 15.7585 13.7515L15.7554 13.75Z" fill="#88644A"/>
<path d="M17.8461 18.7501C14.7923 18.7501 12.3077 16.2267 12.3077 13.1251C12.3077 12.7845 12.3354 12.4626 12.3923 12.1407C12.4523 11.8001 12.7723 11.5735 13.1061 11.6345C13.44 11.6954 13.6631 12.0204 13.6046 12.3595C13.5615 12.6079 13.54 12.8595 13.54 13.1251C13.54 15.5376 15.4723 17.5001 17.8477 17.5001C20.2231 17.5001 22.1554 15.5376 22.1554 13.1251C22.1554 11.1688 20.8631 9.4376 19.0123 8.91416C18.6492 8.80635 18.2492 8.7501 17.8477 8.7501C17.2031 8.7501 16.5984 8.8876 16.0508 9.16104C16.0446 9.16416 16.0369 9.16728 16.0292 9.17041C15.5554 9.38447 15.1108 9.7001 14.7431 10.0845C14.5061 10.3329 14.1169 10.3376 13.8723 10.097C13.6277 9.85635 13.6231 9.46103 13.86 9.2126C14.3338 8.71728 14.9061 8.30947 15.5184 8.03135C16.2338 7.67666 17.0169 7.49854 17.8461 7.49854C18.3646 7.49854 18.8846 7.57197 19.3492 7.71103C21.7215 8.38135 23.3846 10.6079 23.3846 13.1235C23.3846 16.2251 20.9 18.7485 17.8461 18.7485V18.7501Z" fill="#88644A"/>
</g>
<defs>
<clipPath id="clip0_389_671">
<rect width="32" height="30" fill="white"/>
</clipPath>
</defs>
</svg>
