<svg width="48" height="46" viewBox="0 0 48 46" fill="none" xmlns="http://www.w3.org/2000/svg">
<path d="M19.7419 30.4047L10.5161 41.0498L13 41.7595C14.6464 42.2279 16.3568 42.4692 18.0671 42.4692H21.871V43.8885" stroke="#88644A" stroke-width="2" stroke-miterlimit="10"/>
<path d="M21.871 18.3401L13.3548 29.6949L18.4432 31.8949" stroke="#88644A" stroke-width="2" stroke-miterlimit="10"/>
<path d="M26.129 42.4692V45.3079" stroke="#88644A" stroke-width="2" stroke-miterlimit="10"/>
<path d="M21.871 43.8885V45.3079" stroke="#88644A" stroke-width="2" stroke-miterlimit="10"/>
<path d="M26.711 19.1137L30.3871 17.6305L24 8.40466L17.6129 17.6305L21.2961 19.0995" stroke="#88644A" stroke-width="2" stroke-miterlimit="10"/>
<path d="M28.2581 30.4047L37.4839 41.0498L35 41.7595C33.3535 42.2279 31.6432 42.4692 29.9329 42.4692H25.4193" stroke="#88644A" stroke-width="2" stroke-miterlimit="10"/>
<path d="M26.129 18.3401L34.6452 29.6949L29.5355 31.8807" stroke="#88644A" stroke-width="2" stroke-miterlimit="10"/>
<path d="M18.3226 11.2433L14.7742 6.27551L9.09677 14.7916L12.6452 16.211L4.83871 26.1465L8.3871 27.5658L2 36.082L6.96774 38.211" stroke="#88644A" stroke-width="2" stroke-miterlimit="10"/>
<path d="M29.6774 11.2433L33.2258 6.27551L38.9032 14.7916L35.3548 16.211L43.1613 26.1465L39.6129 27.5658L46 36.082L41.0323 38.211" stroke="#88644A" stroke-width="2" stroke-miterlimit="10"/>
<path d="M38.9032 1.30774C38.9032 1.30774 41.8555 1.49226 42.4516 3.43677C42.4516 3.43677 43.871 1.30774 46 1.30774" stroke="#88644A" stroke-width="2" stroke-miterlimit="10"/>
</svg>
