<svg width="46" height="48" viewBox="0 0 46 48" fill="none" xmlns="http://www.w3.org/2000/svg">
<path d="M12.3548 16.5013L20.871 2.30774L31.5161 21.469H36.4839L43.8574 31.3052" stroke="#88644A" stroke-width="2" stroke-miterlimit="10"/>
<path d="M14.4839 12.9528L17.3226 16.5012L20.1613 12.2432L22.2903 13.6625" stroke="#88644A" stroke-width="2" stroke-miterlimit="10"/>
<path d="M5.25809 23.5981L8.80647 17.9207L15.1936 27.1465H21.5807L31.5162 37.7916H35.7742L37.8394 40.5523" stroke="#88644A" stroke-width="2" stroke-miterlimit="10"/>
<path d="M36.4839 21.4691V27.1465" stroke="#88644A" stroke-width="2" stroke-miterlimit="10"/>
<path d="M1 7.98523C1 7.98523 3.95226 8.16975 4.54839 10.1143C4.54839 10.1143 5.96774 7.98523 8.09677 7.98523" stroke="#88644A" stroke-width="2" stroke-miterlimit="10"/>
<path d="M21.5806 36.3722V42.7593" stroke="#88644A" stroke-width="2" stroke-miterlimit="10"/>
<path d="M19.4516 41.3398L21.5806 39.2108L23.7097 41.3398" stroke="#88644A" stroke-width="2" stroke-miterlimit="10"/>
<path d="M20.1613 37.7915L21.5806 36.3722L23 37.7915" stroke="#88644A" stroke-width="2" stroke-miterlimit="10"/>
<path d="M13.7742 33.5333V39.9204" stroke="#88644A" stroke-width="2" stroke-miterlimit="10"/>
<path d="M11.6452 38.5012L13.7742 36.3722L15.9032 38.5012" stroke="#88644A" stroke-width="2" stroke-miterlimit="10"/>
<path d="M12.3548 34.9527L13.7742 33.5333L15.1935 34.9527" stroke="#88644A" stroke-width="2" stroke-miterlimit="10"/>
<path d="M25.8387 2.49243C36.6471 3.8834 45 13.1234 45 24.3079C45 36.4576 35.1497 46.3079 23 46.3079C10.8503 46.3079 1 36.4576 1 24.3079" stroke="#88644A" stroke-width="2" stroke-miterlimit="10"/>
</svg>
