<svg width="169" height="48" viewBox="0 0 169 48" fill="none" xmlns="http://www.w3.org/2000/svg">
<g clip-path="url(#clip0_389_923)">
<path d="M22.8859 13.2389C23.5279 13.2166 24.0047 13.5361 24.3238 14.0598C24.8043 14.8473 25.2211 15.6682 25.7016 16.4557C27.1995 18.9074 29.0767 21.0284 31.3968 22.752C32.1889 23.3426 33.0449 23.8329 34.0323 24.0558C34.922 24.2527 35.6954 24.0855 36.3374 23.4206C36.5664 23.1829 36.7841 22.9414 37.0244 22.7148C37.6964 22.0833 38.605 22.035 39.2957 22.6517C39.6561 22.9748 39.9565 23.3797 40.2343 23.7772C40.452 24.0929 40.6435 24.4421 40.7749 24.7987C41.522 26.8566 43.08 28.153 44.9459 29.1522C45.6817 29.546 46.4626 29.8543 47.2172 30.222C47.3449 30.2852 47.4274 30.4449 47.5326 30.56C47.3824 30.5898 47.2135 30.6789 47.0896 30.6381C45.295 30.0177 43.5981 29.2191 42.149 27.971C41.4282 27.3469 40.8575 26.6151 40.4445 25.7571C40.1968 25.2333 39.9265 24.7207 39.6411 24.2192C39.4947 23.9629 39.3108 23.7215 39.108 23.506C38.4698 22.83 38.0231 22.8374 37.3811 23.5172C37.321 23.5803 37.2572 23.6472 37.1971 23.714C35.9394 25.081 34.7418 25.367 32.9961 24.6761C31.2616 23.9926 29.8726 22.8114 28.5623 21.5336C26.734 19.7506 25.2173 17.7335 24.0422 15.4714C23.877 15.1556 23.7006 14.8436 23.4903 14.5576C23.205 14.1638 22.8521 14.0524 22.4317 14.2938C22.0525 14.5167 21.6545 14.7916 21.418 15.1445C20.5057 16.5152 19.616 17.9081 18.7863 19.3345C17.3934 21.7342 15.9105 24.0558 13.9921 26.0914C10.7597 29.5237 6.79145 31.7487 2.30887 33.1491C2.19249 33.1863 2.03481 33.1045 1.89966 33.0748C2.00478 32.956 2.08362 32.7777 2.21502 32.7331C4.60272 31.8639 6.86278 30.7495 8.97266 29.3417C12.3252 27.1055 14.8819 24.1598 16.9054 20.7312C17.874 19.0931 18.79 17.4252 19.7849 15.8057C20.1941 15.1408 20.7122 14.5316 21.2416 13.9484C21.662 13.4878 22.2101 13.2017 22.8897 13.2463" fill="#A17758"/>
<path d="M125.674 30.6602C125.666 30.8274 125.651 30.9945 125.651 31.1654C125.651 34.5308 125.651 37.9 125.651 41.2691C125.651 41.5811 125.651 41.8003 125.215 41.7966C124.791 41.7929 124.724 41.6146 124.724 41.2542C124.731 37.2796 124.724 33.305 124.739 29.3267C124.739 29.1372 124.844 28.8066 124.945 28.7881C125.257 28.7286 125.606 28.6432 125.85 29.0444C127.003 30.9351 128.185 32.811 129.353 34.6943C130.344 36.2841 131.331 37.8777 132.319 39.4675C132.412 39.6161 132.514 39.7573 132.732 39.8984C132.75 39.6941 132.784 39.4935 132.788 39.2929C132.788 35.9535 132.788 32.6178 132.792 29.2784C132.792 29.0444 132.709 28.7658 133.133 28.7472C133.535 28.7286 133.674 28.8364 133.674 29.2598C133.659 33.2493 133.666 37.2425 133.659 41.232C133.659 41.414 133.58 41.7334 133.494 41.7483C133.175 41.8077 132.833 41.8783 132.593 41.4846C131.451 39.6198 130.284 37.77 129.127 35.9164C128.11 34.2894 127.096 32.6624 126.079 31.0354C125.993 30.8942 125.891 30.7642 125.794 30.6268C125.752 30.6379 125.711 30.6528 125.674 30.6639" fill="#A17758"/>
<path d="M145.702 17.3212V16.8086C145.702 13.4432 145.71 10.0778 145.695 6.70862C145.695 6.3223 145.796 6.18114 146.198 6.19972C146.543 6.21457 146.63 6.35573 146.626 6.66404C146.615 7.75985 146.622 8.85937 146.622 9.95517C146.622 12.8154 146.626 15.6794 146.615 18.5396C146.615 18.7736 146.54 19.1562 146.397 19.2082C146.044 19.3345 145.714 19.2528 145.462 18.8479C143.356 15.4305 141.224 12.0316 139.099 8.62535C138.982 8.43962 138.858 8.26132 138.626 8.09045C138.607 8.29475 138.573 8.50277 138.573 8.70707C138.573 12.0428 138.573 15.3822 138.569 18.7179C138.569 18.9519 138.644 19.2342 138.228 19.2528C137.83 19.2714 137.676 19.1748 137.68 18.7402C137.695 14.7359 137.687 10.7315 137.698 6.72719C137.698 6.55632 137.804 6.25172 137.897 6.24058C138.183 6.196 138.524 6.08085 138.742 6.44116C139.151 7.11351 139.572 7.77842 139.988 8.44705C141.764 11.2999 143.536 14.1527 145.312 17.0055C145.387 17.1281 145.473 17.2395 145.556 17.3584C145.605 17.3435 145.657 17.3286 145.706 17.3175" fill="#A17758"/>
<path d="M92.4184 8.12752V8.64756C92.4184 12.013 92.4109 15.3821 92.4297 18.7475C92.4297 19.1859 92.2607 19.3196 91.8778 19.2342C91.7501 19.2044 91.63 19.0521 91.5474 18.9296C91.4986 18.8553 91.5324 18.729 91.5324 18.625C91.5324 14.6949 91.5324 10.7649 91.5399 6.83484C91.5399 6.63053 91.6262 6.28508 91.7464 6.25165C92.0805 6.15507 92.4146 6.15878 92.6624 6.55996C94.7911 10.0145 96.9423 13.458 99.0859 16.9051C99.1835 17.0648 99.2962 17.2134 99.5064 17.3434C99.5214 17.1466 99.5552 16.9497 99.5552 16.7528C99.5552 13.4171 99.5552 10.0777 99.5552 6.74197C99.5552 6.47452 99.5102 6.20707 99.9419 6.20336C100.306 6.20336 100.437 6.29622 100.434 6.67882C100.422 10.7129 100.43 14.7469 100.419 18.781C100.419 18.9333 100.332 19.2082 100.257 19.2193C99.9794 19.2564 99.6491 19.3753 99.4388 19.0484C99.176 18.6361 98.917 18.2164 98.658 17.8003C96.7133 14.6838 94.7723 11.5672 92.8276 8.4544C92.7488 8.32439 92.6512 8.20552 92.5611 8.07923C92.5122 8.0978 92.4597 8.11637 92.4109 8.13123" fill="#A17758"/>
<path d="M101.395 35.2589C101.395 33.2716 101.41 31.2843 101.384 29.3007C101.376 28.8364 101.526 28.7286 101.969 28.7398C103.392 28.7658 104.819 28.7398 106.242 28.7583C107.097 28.7695 107.901 28.9924 108.592 29.5198C109.346 30.0956 109.782 30.8645 109.793 31.8043C109.819 34.0554 109.831 36.3101 109.801 38.5612C109.778 40.2067 108.689 41.4325 107.034 41.6703C106.226 41.7854 105.393 41.7594 104.571 41.7706C103.67 41.7854 102.773 41.7594 101.872 41.7817C101.5 41.7929 101.384 41.6777 101.387 41.3062C101.402 39.2892 101.395 37.2759 101.395 35.2589ZM102.315 35.27V40.5188C102.315 40.5188 102.315 40.5485 102.315 40.5633C102.285 40.8605 102.352 41.0388 102.72 41.0314C103.861 41.0165 104.999 41.0537 106.14 41.0128C107.856 40.9534 108.918 39.9096 108.948 38.2269C108.982 36.2247 108.982 34.2225 108.948 32.2241C108.922 30.7048 108.029 29.7056 106.527 29.5793C105.292 29.4753 104.042 29.5273 102.799 29.4901C102.431 29.479 102.307 29.6016 102.311 29.973C102.33 31.7375 102.318 33.5019 102.318 35.2663" fill="#A17758"/>
<path d="M63.1277 35.6489C64.1226 37.6808 65.0987 39.6718 66.0785 41.6702C65.399 41.8968 65.2526 41.8411 64.9936 41.3062C64.1564 39.5863 63.3079 37.8665 62.4857 36.1392C62.313 35.7752 62.1141 35.6006 61.6786 35.6192C60.8113 35.66 59.9366 35.6303 59.0694 35.6303C58.4161 35.6303 58.4124 35.6303 58.4124 36.3026C58.4124 37.9779 58.4086 39.6532 58.4124 41.3322C58.4124 41.6368 58.3448 41.7928 57.9881 41.7928C57.6352 41.7928 57.5264 41.6888 57.5264 41.3359C57.5376 37.287 57.5376 33.2381 57.5264 29.1892C57.5264 28.8697 57.609 28.7434 57.9544 28.7471C59.5462 28.762 61.1342 28.7397 62.726 28.762C64.4792 28.7843 65.8833 30.1773 65.9359 31.9083C65.996 33.877 65.2601 34.9097 63.3455 35.5486C63.2891 35.5671 63.2403 35.5969 63.124 35.6526M58.4086 32.1906C58.4086 32.9446 58.4086 33.7024 58.4086 34.4565C58.4086 34.7537 58.4875 34.9134 58.8441 34.9059C60.0868 34.8874 61.3332 34.9134 62.5758 34.8874C62.8949 34.8799 63.2328 34.7982 63.5294 34.6719C64.5806 34.2336 65.0687 33.3198 65.0199 31.9454C64.9786 30.7233 64.1076 29.6832 62.8799 29.5941C61.5096 29.4938 60.1281 29.5309 58.7503 29.5086C58.4199 29.5049 58.4124 29.7352 58.4124 29.9693C58.4124 30.7085 58.4124 31.4514 58.4124 32.1906" fill="#A17758"/>
<path d="M79.3235 12.6928C79.3235 11.6564 79.2635 10.6164 79.3385 9.5837C79.4662 7.80069 80.8252 6.42258 82.6085 6.12912C83.4682 5.98797 84.3092 6.01026 85.1389 6.25542C86.8958 6.78289 87.9583 8.24644 87.9921 10.2375C88.0184 11.883 88.0221 13.5286 87.9921 15.1742C87.9545 17.3769 86.7494 18.8962 84.6245 19.2751C82.1542 19.7171 80.1419 18.7402 79.4812 16.5746C79.331 16.088 79.2822 15.5568 79.2559 15.0442C79.2184 14.2604 79.2484 13.4729 79.2484 12.6854C79.2747 12.6854 79.301 12.6854 79.3235 12.6854M86.9897 12.7411C87.0197 12.7411 87.0498 12.7411 87.0798 12.7411C87.0798 11.9573 87.0573 11.1698 87.0836 10.3861C87.1511 8.35788 85.8184 6.9872 84.0238 6.82747C81.9327 6.64174 80.2471 7.88984 80.1832 9.98116C80.1269 11.8013 80.157 13.6289 80.1757 15.4528C80.1908 16.8792 81.088 18.0827 82.4245 18.4467C82.9201 18.5804 83.4607 18.5953 83.9788 18.5916C85.4467 18.5804 86.7982 17.5032 86.9634 16.0694C87.0911 14.9736 86.9897 13.8555 86.9897 12.7448" fill="#A17758"/>
<path d="M61.1267 19.4013C60.1994 19.3827 59.2946 19.2712 58.4649 18.8404C57.0045 18.0826 56.6329 17.0016 56.6479 15.6347C56.6479 15.3486 56.8018 15.2818 57.0496 15.2892C57.2786 15.2966 57.5114 15.2632 57.5226 15.6049C57.5339 15.9318 57.5339 16.2661 57.6127 16.5745C57.8455 17.4697 58.4875 18.012 59.3322 18.3092C60.4509 18.7029 61.596 18.7252 62.7373 18.4057C63.6195 18.1569 64.2578 17.6183 64.4567 16.7007C64.667 15.7164 64.4154 14.8212 63.5294 14.2863C62.5233 13.6808 61.4421 13.1979 60.3834 12.6741C59.8353 12.403 59.2646 12.1689 58.7202 11.8903C57.3612 11.2031 56.8356 10.2076 56.9482 8.88153C57.1022 7.09109 58.4049 6.37417 59.6851 6.14758C60.8527 5.93957 62.0165 5.98043 63.139 6.40018C64.5731 6.93508 65.339 8.09032 65.3202 9.59473C65.3165 9.96247 65.1475 9.99962 64.8509 9.99962C64.5543 9.99962 64.3554 9.94761 64.3892 9.5873C64.5093 8.2909 63.5595 7.10966 61.84 6.90165C61.0967 6.80878 60.312 6.85707 59.5725 6.9908C58.6489 7.16167 58.0107 7.74857 57.8568 8.71065C57.6991 9.69131 57.9844 10.5382 58.8967 11.0248C59.7639 11.4892 60.6875 11.8458 61.581 12.2692C62.3243 12.6184 63.0939 12.9341 63.781 13.3725C65.384 14.394 65.553 15.4601 65.3653 16.6785C65.1588 18.0157 64.0888 18.9667 62.5984 19.2415C62.1141 19.3307 61.6185 19.3493 61.1267 19.4013Z" fill="#A17758"/>
<path d="M104.105 12.7226C104.105 10.7353 104.117 8.74799 104.098 6.76068C104.094 6.33722 104.218 6.19606 104.657 6.19978C107.116 6.21835 109.579 6.21092 112.038 6.20349C112.331 6.20349 112.519 6.23321 112.511 6.60467C112.504 6.96498 112.301 6.96498 112.042 6.96498C109.973 6.96498 107.901 6.96498 105.832 6.96498C105.712 6.96498 105.592 6.97613 105.472 6.96498C105.145 6.93155 105.018 7.05785 105.021 7.39216C105.033 8.88914 105.033 10.3861 105.021 11.8868C105.021 12.2026 105.138 12.2954 105.446 12.2917C106.947 12.2806 108.445 12.2917 109.947 12.2843C110.229 12.2843 110.435 12.2954 110.439 12.6743C110.439 13.0606 110.244 13.1089 109.932 13.1052C108.475 13.0978 107.022 13.1201 105.566 13.0904C105.119 13.0829 105.014 13.2315 105.021 13.6475C105.044 15.0702 105.048 16.4966 105.021 17.9193C105.014 18.3539 105.164 18.4802 105.585 18.4765C107.713 18.4617 109.846 18.4691 111.974 18.4765C112.215 18.4765 112.504 18.4022 112.511 18.8183C112.515 19.1414 112.417 19.2603 112.076 19.2603C109.572 19.2492 107.064 19.2492 104.56 19.2603C104.184 19.2603 104.105 19.1043 104.105 18.7811C104.113 16.7641 104.109 14.7471 104.109 12.73" fill="#A17758"/>
<path d="M168.96 41.7185C168.096 41.8597 168.093 41.8597 167.852 41.113C167.672 40.5633 167.485 40.0172 167.319 39.4638C167.241 39.2 167.109 39.0849 166.813 39.0886C165.029 39.0997 163.242 39.1034 161.459 39.0886C161.14 39.0886 161.012 39.2037 160.933 39.4935C160.776 40.0618 160.58 40.6227 160.4 41.1873C160.198 41.8299 160.07 41.8931 159.3 41.6925C159.368 41.4585 159.428 41.217 159.507 40.9867C160.794 37.079 162.09 33.1712 163.37 29.2598C163.494 28.8772 163.666 28.7174 164.094 28.7286C164.504 28.7434 164.725 28.8177 164.864 29.2523C166.171 33.2641 167.511 37.2647 168.836 41.269C168.881 41.4065 168.915 41.5476 168.964 41.7148M164.226 29.9915C164.162 29.9878 164.098 29.9841 164.034 29.9804C163.13 32.744 162.225 35.5077 161.301 38.3271H166.959C166.035 35.5077 165.134 32.7515 164.23 29.9915" fill="#A17758"/>
<path d="M69.157 35.2515C69.157 33.2493 69.1683 31.2472 69.1495 29.245C69.1458 28.855 69.2584 28.7361 69.6563 28.7398C72.1154 28.7547 74.5782 28.751 77.0372 28.7473C77.3037 28.7473 77.544 28.7287 77.5553 29.115C77.5665 29.5385 77.2925 29.5013 77.0147 29.5013C74.8973 29.5013 72.7836 29.5013 70.67 29.5013C70.0806 29.5013 70.0806 29.5013 70.0806 30.0957C70.0806 31.5332 70.0918 32.9745 70.0731 34.412C70.0693 34.776 70.2045 34.8763 70.5423 34.8726C72.014 34.8652 73.4819 34.8726 74.9536 34.8689C75.2126 34.8689 75.4266 34.8689 75.4266 35.2292C75.4266 35.5413 75.3177 35.6378 75.0061 35.6341C73.5495 35.623 72.0966 35.649 70.6399 35.6155C70.1669 35.6044 70.0655 35.7604 70.0731 36.195C70.0993 37.6474 70.0956 39.1035 70.0731 40.556C70.0693 40.9348 70.2045 41.0351 70.5649 41.0314C72.7236 41.0203 74.886 41.0277 77.0447 41.024C77.3112 41.024 77.5553 41.0017 77.5553 41.3955C77.5553 41.7781 77.3338 41.7781 77.056 41.7781C74.5819 41.7743 72.1041 41.7706 69.6301 41.7818C69.2509 41.7818 69.1458 41.6629 69.1495 41.2989C69.1645 39.2819 69.157 37.2648 69.157 35.2478" fill="#A17758"/>
<path d="M159.041 19.1859C158.193 19.3308 158.178 19.3233 157.949 18.6176C157.765 18.0567 157.573 17.4957 157.404 16.9274C157.322 16.6488 157.183 16.5077 156.868 16.5114C155.096 16.5225 153.327 16.5188 151.555 16.5114C151.251 16.5114 151.101 16.6265 151.018 16.92C150.834 17.5738 150.613 18.2201 150.403 18.8664C150.294 19.197 149.768 19.4162 149.509 19.2119C149.434 19.1525 149.445 18.9184 149.487 18.7847C150.057 17.0091 150.639 15.2373 151.225 13.4654C151.968 11.2144 152.723 8.97075 153.447 6.71599C153.575 6.31853 153.767 6.18481 154.18 6.19595C154.585 6.20338 154.81 6.27767 154.953 6.71971C156.259 10.7315 157.596 14.7358 158.921 18.7401C158.966 18.8776 159 19.0187 159.049 19.1859M151.383 15.7685C151.612 15.7945 151.754 15.8242 151.897 15.8279C153.425 15.8279 154.953 15.8316 156.485 15.8279C157.006 15.8279 157.04 15.7796 156.879 15.2893C156.068 12.8005 155.253 10.3117 154.435 7.82294C154.39 7.6855 154.311 7.55921 154.247 7.42548C154.206 7.42919 154.161 7.43291 154.119 7.44034C153.218 10.1891 152.317 12.9342 151.386 15.7685" fill="#A17758"/>
<path d="M113.149 35.2701C113.149 33.2828 113.161 31.2955 113.138 29.3082C113.134 28.855 113.277 28.7325 113.731 28.7362C116.16 28.7585 118.593 28.7473 121.022 28.7436C121.292 28.7436 121.514 28.725 121.518 29.1188C121.518 29.5125 121.3 29.4977 121.026 29.4977C118.897 29.4977 116.765 29.4977 114.636 29.4977C114.035 29.4977 114.035 29.4977 114.035 30.092C114.035 31.485 114.035 32.8817 114.035 34.2746C114.035 34.8541 114.043 34.8615 114.647 34.8615C116.104 34.8615 117.557 34.869 119.013 34.8615C119.31 34.8615 119.445 34.9395 119.441 35.2627C119.441 35.623 119.235 35.6267 118.976 35.6267C117.519 35.623 116.066 35.6416 114.61 35.6156C114.155 35.6082 114.017 35.7382 114.024 36.1914C114.05 37.614 114.05 39.0367 114.024 40.4631C114.017 40.9238 114.178 41.0389 114.621 41.0352C116.765 41.0166 118.912 41.0315 121.056 41.0203C121.364 41.0203 121.533 41.0686 121.514 41.4289C121.503 41.7112 121.386 41.7781 121.127 41.7744C120.406 41.767 119.686 41.7744 118.965 41.7744C117.196 41.7744 115.424 41.7633 113.652 41.7818C113.254 41.7855 113.134 41.6555 113.138 41.2729C113.153 39.2708 113.146 37.2686 113.146 35.2664" fill="#A17758"/>
<path d="M137.237 35.27C137.237 34.3079 137.229 33.3421 137.237 32.3763C137.255 30.4522 138.689 28.8995 140.619 28.6543C141.993 28.4797 143.281 28.6469 144.407 29.5012C145.342 30.2107 145.71 31.2025 145.811 32.3243C145.845 32.6809 145.62 32.6958 145.357 32.6995C145.105 32.6995 144.903 32.7292 144.88 32.3578C144.771 30.545 143.529 29.3898 141.682 29.4047C141.137 29.4084 140.555 29.4492 140.052 29.635C138.719 30.129 138.123 31.1802 138.115 32.5509C138.104 34.4788 138.093 36.4067 138.164 38.3308C138.216 39.735 139.095 40.6896 140.465 41.0499C141.239 41.2542 142.008 41.2319 142.767 40.9979C144.002 40.6227 144.831 39.5604 144.876 38.2491C144.891 37.8628 145.053 37.8034 145.376 37.8331C145.702 37.8665 145.838 37.9854 145.8 38.3457C145.488 41.2654 142.924 42.2534 140.702 41.882C138.682 41.544 137.642 40.5224 137.27 38.6429C137.24 38.4831 137.233 38.3197 137.229 38.1562C137.229 37.1905 137.229 36.2284 137.229 35.2626" fill="#A17758"/>
<path d="M115.338 12.6779C115.338 11.6861 115.308 10.6906 115.346 9.69877C115.413 7.88233 116.675 6.4745 118.484 6.14761C119.614 5.94331 120.729 5.9916 121.773 6.50793C123.109 7.16913 123.808 8.25379 123.856 9.73591C123.864 9.98479 123.834 10.1742 123.507 10.1705C123.222 10.1705 123.019 10.1891 122.978 9.78049C122.82 8.20178 121.983 7.24342 120.545 6.91282C119.006 6.55622 117.407 7.05397 116.723 8.21664C116.427 8.71811 116.235 9.34959 116.217 9.92907C116.153 11.7827 116.179 13.6362 116.198 15.4898C116.217 17.2951 117.546 18.5804 119.366 18.6101C120.035 18.6212 120.684 18.5804 121.289 18.2758C122.366 17.7371 122.895 16.8345 122.978 15.6793C123.008 15.2521 123.252 15.3189 123.522 15.3078C123.871 15.2967 123.856 15.5121 123.853 15.7498C123.834 17.5477 122.355 19.1115 120.489 19.3493C119.532 19.4719 118.6 19.431 117.711 19.067C116.243 18.4652 115.432 17.362 115.349 15.7944C115.293 14.758 115.338 13.718 115.338 12.6816H115.334" fill="#A17758"/>
<path d="M127.28 18.4206C127.611 18.4428 127.832 18.4651 128.05 18.4651C130.058 18.4651 132.071 18.4651 134.079 18.4651C134.357 18.4651 134.582 18.48 134.567 18.8589C134.556 19.1449 134.462 19.2489 134.169 19.2489C131.665 19.2415 129.157 19.2415 126.653 19.2489C126.331 19.2489 126.195 19.1226 126.259 18.8292C126.323 18.5357 126.379 18.2163 126.537 17.9674C128.752 14.4942 130.982 11.0322 133.208 7.56651C133.31 7.4105 133.388 7.24334 133.52 7.00561C133.265 6.98703 133.096 6.96475 132.927 6.96475C130.858 6.96475 128.786 6.95732 126.717 6.96846C126.372 6.96846 126.177 6.8756 126.267 6.52271C126.297 6.40013 126.458 6.24412 126.578 6.22183C126.841 6.17725 127.115 6.20697 127.385 6.20697C129.574 6.20697 131.767 6.20697 133.955 6.20697C134.56 6.20697 134.729 6.45585 134.511 7.03904C134.451 7.20248 134.342 7.35106 134.248 7.50336C132.048 10.9319 129.848 14.3605 127.652 17.7928C127.543 17.9637 127.442 18.142 127.28 18.4168" fill="#A17758"/>
<path d="M80.7652 40.9758C81.0355 40.9981 81.2082 41.0278 81.3771 41.0278C83.4345 41.0278 85.488 41.0278 87.5454 41.0278C87.7932 41.0278 88.0184 41.0018 88.0222 41.3733C88.0297 41.7336 87.8645 41.7819 87.5566 41.7819C85.4693 41.7745 83.3857 41.7782 81.2983 41.7782C80.8928 41.7782 80.4874 41.8005 80.0857 41.7633C79.9693 41.7522 79.7703 41.5553 79.7816 41.4661C79.8304 41.1281 79.8792 40.7529 80.0556 40.4743C82.2519 37.0235 84.4706 33.5875 86.6856 30.1441C86.787 29.9843 86.8809 29.8172 87.0273 29.5757C86.7758 29.546 86.5955 29.5051 86.4116 29.5014C84.3543 29.4977 82.3007 29.494 80.2434 29.5014C79.9242 29.5014 79.7253 29.4569 79.7553 29.0705C79.7741 28.8179 79.8754 28.7437 80.1157 28.7437C82.6235 28.7474 85.1276 28.7474 87.6355 28.7437C87.8983 28.7437 88.0635 28.8217 88.0071 29.0928C87.9396 29.416 87.902 29.7726 87.7293 30.0438C85.5444 33.4835 83.3369 36.912 81.1406 40.3443C81.028 40.5189 80.9304 40.6972 80.7652 40.9758Z" fill="#A17758"/>
<path d="M69.9079 12.6408C70.5048 12.2136 71.0004 11.8607 71.4959 11.5041C72.4157 10.8392 73.3393 10.178 74.2516 9.50563C74.4806 9.33476 74.6533 9.29019 74.8485 9.55764C75.0437 9.82509 74.8898 9.95139 74.6946 10.0963C73.2154 11.1586 71.74 12.2284 70.2533 13.2797C69.983 13.4728 69.8553 13.6846 69.8591 14.0152C69.8703 15.319 69.8779 16.6228 69.8591 17.9266C69.8516 18.3612 70.0205 18.4801 70.4372 18.4764C72.4307 18.4615 74.428 18.469 76.4215 18.4764C76.643 18.4764 76.9246 18.3984 76.9471 18.781C76.9659 19.1004 76.9021 19.2639 76.5116 19.2602C74.1427 19.2453 71.7737 19.249 69.4048 19.2602C69.1007 19.2602 68.9806 19.1747 68.9806 18.8553C68.9881 14.7804 68.9881 10.7017 68.9806 6.62682C68.9806 6.31851 69.0782 6.2145 69.3936 6.21079C69.7389 6.20707 69.8779 6.31108 69.8741 6.66768C69.8628 8.41726 69.8666 10.1668 69.8741 11.9164C69.8741 12.117 69.9004 12.3213 69.9229 12.6519" fill="#A17758"/>
<path d="M155.7 33.7657C155.7 32.239 155.707 30.7123 155.692 29.1856C155.692 28.8699 155.768 28.7287 156.117 28.7399C156.428 28.751 156.62 28.7807 156.62 29.167C156.608 32.161 156.65 35.155 156.601 38.1489C156.552 41.2395 153.939 42.1496 151.893 41.897C151.229 41.8152 150.542 41.5886 149.96 41.2655C148.833 40.6414 148.387 39.5679 148.319 38.331C148.297 37.9038 148.334 37.4692 148.308 37.042C148.285 36.678 148.409 36.5479 148.788 36.5517C149.149 36.5554 149.261 36.6854 149.243 37.0271C149.22 37.4543 149.235 37.8852 149.239 38.3161C149.254 39.5939 150.027 40.634 151.266 40.998C152.058 41.2321 152.866 41.2246 153.658 40.9906C154.893 40.6191 155.681 39.5865 155.692 38.305C155.707 36.7931 155.696 35.2813 155.696 33.7694L155.7 33.7657Z" fill="#A17758"/>
<path d="M89.9744 28.8066C90.7815 28.6618 90.8153 28.6766 91.172 29.2969C92.1481 30.9797 93.1242 32.6624 94.1003 34.3451C94.1866 34.4937 94.2842 34.6348 94.4269 34.854C94.5621 34.6608 94.6559 34.5382 94.7348 34.4045C95.7221 32.7107 96.7057 31.0131 97.6893 29.3192C97.9346 28.8958 98.3363 28.7212 98.8945 28.7955C98.8044 28.9775 98.7293 29.1446 98.6392 29.3007C97.4641 31.3325 96.2815 33.3607 95.1252 35.4C94.9713 35.6675 94.8774 36.0055 94.8737 36.3138C94.8474 37.9742 94.8586 39.6347 94.8662 41.2951C94.8662 41.596 94.8474 41.7928 94.4419 41.7928C94.0552 41.7928 94.0027 41.6294 94.0027 41.31C94.0139 39.6792 94.0252 38.0485 93.9952 36.4178C93.9877 36.0389 93.8825 35.6229 93.6948 35.296C92.5348 33.2381 91.3372 31.2025 90.1546 29.1595C90.0945 29.0592 90.0457 28.9515 89.9744 28.8103" fill="#A17758"/>
<path d="M10.1553 38.6393C9.30305 39.464 8.47336 40.2738 7.62866 41.065C7.55733 41.1318 7.36586 41.0761 7.22695 41.0798C7.23822 40.9387 7.18941 40.7418 7.2645 40.6601C8.00784 39.8874 8.76995 39.1334 9.53206 38.383C9.79111 38.1267 9.915 38.383 10.1515 38.6393" fill="#A17758"/>
<path d="M38.8377 9.75078C38.7439 9.67277 38.6087 9.60962 38.5862 9.52047C38.5599 9.41646 38.5974 9.25673 38.6725 9.17873C39.1531 8.67354 39.6524 8.18693 40.148 7.69289C40.3995 7.4403 40.6398 7.17285 40.9176 6.94997C41.0114 6.87568 41.2066 6.92025 41.3568 6.91282C41.3418 7.05769 41.3869 7.25085 41.308 7.33257C40.5797 8.09407 39.8288 8.83698 39.0855 9.58362C39.0254 9.64305 38.9428 9.68391 38.8415 9.75078" fill="#A17758"/>
<path d="M14.9307 1.83862C15.017 1.92777 15.1371 2.00578 15.1859 2.1135C15.6102 3.07558 16.0306 4.04138 16.4286 5.01832C16.4661 5.10747 16.3347 5.26348 16.2822 5.38978C16.1583 5.33777 15.9556 5.31548 15.918 5.22633C15.4825 4.26797 15.0658 3.30217 14.6716 2.32524C14.6191 2.19894 14.7354 2.00207 14.773 1.83862C14.8255 1.83862 14.8781 1.83862 14.9344 1.83862" fill="#A17758"/>
<path d="M41.6834 40.6488C41.6121 40.7528 41.5783 40.8679 41.5032 40.9051C41.4281 40.9422 41.293 40.9348 41.2217 40.8902C41.0865 40.8048 40.9739 40.6822 40.8575 40.567C40.208 39.9356 39.5623 39.3004 38.9166 38.6652C38.7739 38.5277 38.62 38.394 38.8415 38.1934C39.0479 38.004 39.1869 38.1228 39.3333 38.2677C40.0353 38.9549 40.7374 39.6384 41.4357 40.3256C41.5258 40.4147 41.5933 40.5299 41.6872 40.6525" fill="#A17758"/>
<path d="M15.2423 46.4548C15.1522 46.1762 15.017 45.9905 15.0658 45.8679C15.445 44.8761 15.8504 43.8917 16.2747 42.9148C16.3122 42.8257 16.5262 42.8071 16.6614 42.7588C16.7027 42.8925 16.819 43.0485 16.7777 43.1488C16.4061 44.1146 16.0119 45.0693 15.6102 46.0202C15.5614 46.1428 15.4337 46.2319 15.2423 46.4511" fill="#A17758"/>
<path d="M11.2703 44.1926C10.9887 44.1666 10.8911 43.992 11.03 43.7692C11.6157 42.8405 12.2163 41.923 12.832 41.0167C12.8733 40.9535 13.1399 40.9424 13.1812 40.9944C13.2563 41.0909 13.3013 41.2953 13.245 41.3881C12.8696 42.0085 12.4641 42.6139 12.0662 43.2194C11.9047 43.4683 11.732 43.7097 11.5819 43.966C11.5143 44.0812 11.4805 44.2186 11.4317 44.3486C11.3754 44.2966 11.3191 44.2446 11.2665 44.1926" fill="#A17758"/>
<path d="M1.92593 24.4234C1.41535 24.4234 0.904774 24.4419 0.39795 24.4122C0.262797 24.4048 0.131399 24.2525 0 24.1671C0.138907 24.063 0.270306 23.8736 0.412967 23.8699C1.44539 23.8439 2.48156 23.8476 3.51398 23.8662C3.61534 23.8662 3.71295 24.0445 3.81056 24.1411C3.70544 24.2302 3.60408 24.3936 3.49896 24.4011C2.97712 24.4271 2.45152 24.4122 1.92593 24.4122V24.4234Z" fill="#A17758"/>
<path d="M43.2377 16.3479C43.1514 16.1473 43.0988 16.0136 43.02 15.8279C43.3391 15.6867 43.6319 15.5493 43.9322 15.4267C44.6756 15.1147 45.4152 14.7952 46.1698 14.5055C46.2937 14.4572 46.4776 14.5538 46.6315 14.5835C46.5602 14.7246 46.5264 14.9401 46.4176 14.9884C45.3851 15.449 44.3377 15.8836 43.2377 16.3479Z" fill="#A17758"/>
<path d="M24.4251 1.92045C24.4251 2.42192 24.4402 2.9271 24.4139 3.42857C24.4064 3.54372 24.2562 3.64773 24.1699 3.75917C24.0647 3.65145 23.8733 3.54744 23.8695 3.43971C23.8432 2.40334 23.8432 1.36697 23.862 0.334314C23.862 0.222876 24.031 0.111438 24.1211 0C24.2187 0.107723 24.3989 0.211732 24.4026 0.326884C24.4327 0.858071 24.4176 1.39297 24.4176 1.92416H24.4251" fill="#A17758"/>
<path d="M10.7784 4.17899C10.831 4.22727 10.9436 4.30157 11.0149 4.40558C11.6044 5.24507 12.1938 6.08457 12.7644 6.93893C12.8207 7.02437 12.7381 7.19895 12.7194 7.33268C12.5805 7.31039 12.3702 7.33268 12.3102 7.25096C11.6907 6.3966 11.0863 5.5311 10.5006 4.65445C10.3317 4.40186 10.4593 4.16041 10.7822 4.17899" fill="#A17758"/>
<path d="M41.2554 12.7969C41.2029 12.6929 41.1165 12.5926 41.1015 12.4811C41.0865 12.3845 41.1128 12.2285 41.1803 12.1802C42.0739 11.5562 42.9711 10.9396 43.8797 10.3415C43.966 10.2858 44.1424 10.3638 44.2776 10.3824C44.2588 10.5161 44.2889 10.7167 44.2138 10.7724C43.3128 11.4113 42.4005 12.0279 41.4882 12.652C41.4544 12.678 41.4056 12.6817 41.3643 12.6966C41.3305 12.73 41.293 12.7634 41.2592 12.7969" fill="#A17758"/>
<path d="M7.21943 12.7967C7.08053 13.2276 6.88531 13.2425 6.56995 13.0307C5.77405 12.5033 4.96313 12.0018 4.15972 11.4892C3.96825 11.3666 3.72047 11.2217 3.91569 10.984C3.98703 10.8986 4.32866 10.9357 4.48259 11.0249C5.31603 11.5226 6.12695 12.0538 6.94162 12.5776C7.03923 12.6407 7.12558 12.7224 7.22319 12.8004" fill="#A17758"/>
<path d="M32.3654 42.417C32.5381 42.6064 32.6282 42.6696 32.662 42.755C33.0825 43.7208 33.5067 44.6829 33.9009 45.6598C33.946 45.775 33.8221 45.957 33.777 46.1056C33.6494 46.035 33.4504 45.9941 33.4016 45.8864C32.9623 44.9132 32.5381 43.9325 32.1402 42.9445C32.0989 42.8367 32.2603 42.651 32.3617 42.4207" fill="#A17758"/>
<path d="M28.949 0.664843C28.7651 1.64178 28.5999 2.52214 28.4347 3.40621C28.4009 3.5808 28.3972 3.77025 28.3183 3.91883C28.2658 4.01541 28.0856 4.11199 27.9879 4.0897C27.8978 4.07113 27.7702 3.88168 27.789 3.78882C27.9654 2.74502 28.1606 1.70122 28.3784 0.661129C28.4009 0.545976 28.5924 0.464255 28.705 0.367676C28.7989 0.479114 28.8927 0.590551 28.9528 0.661129" fill="#A17758"/>
<path d="M0.829717 29.2747C0.750878 29.2079 0.551902 29.1076 0.559411 29.0221C0.566919 28.9033 0.709581 28.7175 0.825963 28.6915C1.83961 28.4575 2.86077 28.2495 3.87817 28.0378C4.09967 27.9895 4.29864 28.0526 4.28363 28.2941C4.27612 28.4018 4.09591 28.5615 3.96827 28.5913C2.95462 28.8253 1.93347 29.037 0.825963 29.2747" fill="#A17758"/>
<path d="M24.7217 46.1204C24.7217 46.6107 24.7405 47.0974 24.7105 47.584C24.7029 47.7251 24.5603 47.8588 24.4814 48C24.3651 47.8737 24.1586 47.7474 24.1511 47.6174C24.121 46.581 24.121 45.5447 24.1436 44.512C24.1436 44.4191 24.3313 44.2891 24.4552 44.2594C24.5115 44.2445 24.6842 44.4266 24.6879 44.5269C24.7105 45.058 24.6992 45.5929 24.6992 46.1241H24.7217" fill="#A17758"/>
<path d="M35.4551 7.17278C35.3801 6.96848 35.2224 6.75303 35.2787 6.66388C35.8531 5.73152 36.4575 4.81772 37.0732 3.91136C37.1258 3.83336 37.3285 3.85193 37.4599 3.82593C37.4824 3.95965 37.5725 4.13052 37.52 4.21596C36.9381 5.14461 36.3374 6.0584 35.733 6.97219C35.6954 7.02791 35.6203 7.05391 35.4514 7.16906" fill="#A17758"/>
<path d="M46.609 24.1448C46.0984 24.1448 45.5916 24.1596 45.081 24.1336C44.9684 24.1262 44.8595 23.9739 44.7507 23.8848C44.8595 23.7845 44.9684 23.5987 45.081 23.595C46.1135 23.569 47.1459 23.5653 48.1783 23.5839C48.3059 23.5839 48.4298 23.7547 48.5537 23.8439C48.4298 23.9442 48.3059 24.1188 48.1746 24.1262C47.6527 24.1596 47.1271 24.1411 46.6053 24.1411L46.609 24.1448Z" fill="#A17758"/>
<path d="M47.893 28.6174C46.9094 28.4353 46.0158 28.2719 45.1223 28.1085C44.9309 28.0713 44.7244 28.0602 44.563 27.9747C44.4728 27.9264 44.4053 27.7407 44.424 27.6293C44.4353 27.555 44.6193 27.4361 44.7094 27.451C45.7643 27.633 46.8193 27.8299 47.8667 28.0453C47.9868 28.0713 48.0732 28.2459 48.1745 28.3499C48.0694 28.4502 47.9605 28.5505 47.893 28.6136" fill="#A17758"/>
<path d="M44.5141 19.992C44.4503 19.9102 44.2964 19.7988 44.3114 19.7171C44.3339 19.5982 44.4578 19.4311 44.5704 19.4013C45.3663 19.2082 46.1735 19.041 46.9732 18.8702C47.1609 18.8293 47.3561 18.7624 47.5438 18.7699C47.7015 18.7773 47.8554 18.8813 48.0093 18.9444C47.8929 19.0707 47.7953 19.2713 47.6527 19.3085C47.0182 19.4719 46.3687 19.5834 45.7267 19.7208C45.3476 19.8025 44.9684 19.888 44.5141 19.992Z" fill="#A17758"/>
<path d="M19.6047 47.3573C19.7548 46.5401 19.89 45.8158 20.0252 45.0914C20.0815 44.7868 20.134 44.4822 20.1903 44.1776C20.2316 43.9548 20.3443 43.8322 20.592 43.8842C20.8548 43.9399 20.8023 44.0996 20.7647 44.2928C20.5658 45.292 20.3931 46.2912 20.1866 47.2905C20.1603 47.4131 20.0064 47.5765 19.89 47.5951C19.7999 47.6099 19.6798 47.4242 19.6047 47.3611" fill="#A17758"/>
<path d="M7.22694 35.2329C7.57984 35.5189 7.55356 35.7158 7.22694 35.9313C6.42728 36.4587 5.65015 37.0159 4.84299 37.5285C4.69657 37.6214 4.45255 37.562 4.25732 37.5768C4.33992 37.4097 4.37746 37.1831 4.51261 37.0902C5.39862 36.4624 6.30714 35.857 7.22318 35.2366" fill="#A17758"/>
<path d="M5.35729 16.2587C5.30097 16.5299 5.24466 16.7156 4.93681 16.593C3.95695 16.1956 2.97334 15.8167 1.99723 15.4081C1.88085 15.3598 1.82454 15.1778 1.74194 15.0552C1.89211 14.9995 2.07232 14.8583 2.18494 14.8992C3.18733 15.2743 4.18221 15.6755 5.17333 16.0804C5.25217 16.1138 5.30473 16.2104 5.35353 16.2587" fill="#A17758"/>
<path d="M33.5592 2.02066C33.4804 2.22125 33.4278 2.35497 33.3715 2.49241C33.0336 3.3282 32.692 4.16027 32.3541 4.99605C32.2753 5.19293 32.1927 5.34151 31.9336 5.24122C31.6596 5.13349 31.7422 4.96262 31.8173 4.77689C32.2002 3.84824 32.5681 2.91588 32.9661 1.99466C33.0186 1.87208 33.2176 1.80893 33.349 1.71606C33.4241 1.82379 33.4992 1.93523 33.5592 2.02066Z" fill="#A17758"/>
<path d="M38.1582 43.5797C38.1019 43.654 38.0456 43.7877 37.978 43.7914C37.8616 43.7988 37.6964 43.7617 37.6289 43.68C37.4036 43.4051 37.2084 43.1042 37.0057 42.8145C36.6077 42.2424 36.2135 41.6704 35.808 41.102C35.6879 40.9312 35.6278 40.7603 35.8644 40.6786C35.977 40.6377 36.2022 40.6749 36.2623 40.7566C36.8705 41.5961 37.4599 42.4541 38.0456 43.3085C38.0944 43.3791 38.1132 43.4682 38.1545 43.5797" fill="#A17758"/>
<path d="M9.52077 9.944C9.40063 9.84742 9.29927 9.78056 9.21667 9.70255C8.52214 9.0265 7.81634 8.35787 7.14057 7.66324C7.02795 7.54809 6.94535 7.25463 7.01293 7.15063C7.18562 6.8906 7.37334 7.10234 7.51975 7.24721C8.23681 7.94183 8.95763 8.63646 9.66343 9.34224C9.74978 9.42767 9.79483 9.59854 9.77981 9.71741C9.76855 9.79542 9.61838 9.86228 9.51701 9.94029" fill="#A17758"/>
<path d="M0.720815 19.3828C1.85835 19.5908 2.88702 19.7654 3.90817 19.9771C4.01329 19.9994 4.07711 20.2223 4.16346 20.3523C4.04333 20.408 3.90817 20.5306 3.80305 20.512C2.78941 20.3449 1.77576 20.1629 0.76962 19.9549C0.626958 19.9251 0.521839 19.7357 0.397949 19.6205C0.525594 19.5277 0.656992 19.4348 0.724569 19.3865" fill="#A17758"/>
<path d="M41.6647 34.7834C41.7773 34.8429 41.8561 34.8763 41.9312 34.9246C42.7759 35.4595 43.6244 35.9907 44.4541 36.5479C44.578 36.6296 44.6043 36.8488 44.6756 37.0085C44.5066 37.0196 44.2964 37.0976 44.1763 37.0271C43.309 36.4996 42.4568 35.9498 41.6084 35.3889C41.5108 35.3258 41.4432 35.1549 41.4432 35.0323C41.4432 34.9506 41.5821 34.8689 41.6647 34.7834Z" fill="#A17758"/>
<path d="M29.6248 47.205C29.5647 47.2682 29.4746 47.3648 29.3808 47.4613C29.2569 47.3425 29.0504 47.2459 29.0166 47.1047C28.8064 46.2429 28.6337 45.3737 28.446 44.5045C28.4197 44.3894 28.3521 44.2668 28.3746 44.1628C28.4009 44.029 28.4985 43.9139 28.5624 43.7876C28.6862 43.8767 28.8927 43.9436 28.919 44.055C29.1217 44.8574 29.2907 45.6672 29.4671 46.477C29.5159 46.6924 29.561 46.9116 29.6248 47.205Z" fill="#A17758"/>
<path d="M46.5264 33.1676C46.1172 33.0041 45.7718 32.8704 45.4264 32.7329C44.792 32.4804 44.1537 32.2278 43.5193 31.9752C43.3316 31.9009 43.1551 31.8303 43.264 31.5591C43.3728 31.2917 43.5418 31.3585 43.7333 31.4366C44.6718 31.8154 45.6141 32.1832 46.5452 32.5769C46.6728 32.6327 46.7667 32.8147 46.8117 32.9558C46.823 32.993 46.6128 33.1044 46.5302 33.1676" fill="#A17758"/>
<path d="M20.2241 3.9932C20.1453 4.05635 20.0477 4.1975 19.9501 4.19379C19.8412 4.19379 19.6572 4.08235 19.6385 3.98949C19.4019 2.96797 19.1804 1.94274 18.9815 0.913801C18.9589 0.802363 19.1053 0.661208 19.1692 0.534912C19.2818 0.609204 19.4733 0.664923 19.4958 0.761502C19.7473 1.80902 19.9726 2.86396 20.2241 3.99691" fill="#A17758"/>
<path d="M15.5689 40.879C15.0958 41.7854 14.6191 42.6918 14.146 43.5981C14.0972 43.5758 14.0484 43.5498 14.0034 43.5275C14.4764 42.6175 14.9494 41.7111 15.4225 40.801C15.4713 40.827 15.5201 40.853 15.5689 40.8827" fill="#A17758"/>
<path d="M43.767 13.3392C42.8698 13.8332 41.9725 14.3273 41.0752 14.8213C41.049 14.773 41.0227 14.7247 40.9964 14.6802C41.8974 14.1861 42.7947 13.6884 43.6957 13.1943C43.7182 13.2426 43.7445 13.2909 43.767 13.3392Z" fill="#A17758"/>
<path d="M41.3718 9.91042C40.591 10.5605 39.8063 11.2142 39.0254 11.8643C38.9879 11.8234 38.9541 11.7826 38.9166 11.738C39.6974 11.088 40.4783 10.4379 41.2592 9.78784C41.2968 9.8287 41.3343 9.86956 41.3718 9.91042Z" fill="#A17758"/>
<path d="M3.09351 30.6009C4.05835 30.2963 5.02319 29.9917 5.99179 29.6833C6.0068 29.7316 6.02557 29.7799 6.04059 29.8282C5.07575 30.1365 4.11466 30.4448 3.14982 30.7532C3.13105 30.7011 3.11228 30.6491 3.09351 30.5971" fill="#A17758"/>
<path d="M5.17714 22.4435C4.171 22.3543 3.16111 22.2652 2.15497 22.176C2.15872 22.1314 2.16248 22.0831 2.16623 22.0386C3.17612 22.1203 4.18602 22.1983 5.19216 22.28C5.18465 22.3357 5.18089 22.3877 5.17339 22.4435" fill="#A17758"/>
<path d="M9.17915 12.3474C8.36824 11.7159 7.55732 11.0844 6.7464 10.453L6.84401 10.3267C7.65868 10.9619 8.4696 11.5933 9.28427 12.2285C9.25048 12.2694 9.21294 12.3065 9.17915 12.3474Z" fill="#A17758"/>
<path d="M41.7247 37.666C40.9288 37.0457 40.1292 36.4253 39.3333 35.805C39.367 35.7604 39.4008 35.7196 39.4346 35.6787L41.8261 37.5397C41.7923 37.5806 41.7585 37.6252 41.7247 37.666Z" fill="#A17758"/>
<path d="M13.5153 4.74346C14.0109 5.62382 14.5064 6.50418 15.0057 7.38454C14.9569 7.41054 14.9119 7.43654 14.8631 7.46254C14.3675 6.5859 13.872 5.70926 13.3764 4.8289C13.4215 4.79918 13.4703 4.76946 13.5153 4.73975" fill="#A17758"/>
<path d="M34.5804 4.45754L33.1576 7.18034C33.1087 7.15434 33.0637 7.13205 33.0149 7.10976C33.4879 6.2034 33.961 5.29332 34.434 4.38696C34.4828 4.41297 34.5279 4.43525 34.5767 4.46125" fill="#A17758"/>
<path d="M12.4941 38.9327C11.8559 39.735 11.2177 40.5374 10.5757 41.3397C10.5344 41.3063 10.4894 41.2729 10.4481 41.2394C11.09 40.4334 11.7283 39.6273 12.3702 38.825C12.4115 38.8621 12.4528 38.8955 12.4904 38.9327" fill="#A17758"/>
<path d="M17.6149 3.04595C17.919 3.99317 18.2231 4.94039 18.5235 5.8839C18.4746 5.89876 18.4258 5.91362 18.3733 5.92848L17.4535 3.0831C17.5061 3.06824 17.5586 3.05338 17.6112 3.04224" fill="#A17758"/>
<path d="M33.7019 40.5337C34.2012 41.4178 34.7005 42.2982 35.1998 43.1823C35.151 43.2083 35.106 43.2343 35.0571 43.2603C34.5578 42.3725 34.0585 41.4884 33.5592 40.6006C33.608 40.5783 33.6568 40.556 33.7056 40.53" fill="#A17758"/>
<path d="M30.9801 44.98C30.6685 44.0253 30.3606 43.067 30.049 42.1086C30.0978 42.0937 30.1466 42.0752 30.1954 42.0603C30.507 43.015 30.8186 43.9696 31.1302 44.9243C31.0814 44.9428 31.0326 44.9577 30.9801 44.9763" fill="#A17758"/>
<path d="M4.55391 13.837C5.46243 14.3013 6.37096 14.7656 7.27949 15.2299C7.25696 15.2745 7.23069 15.3228 7.20816 15.3674C6.29963 14.9068 5.38735 14.4424 4.47882 13.9781C4.5051 13.9298 4.53138 13.8815 4.55391 13.8333" fill="#A17758"/>
<path d="M42.5582 18.1533C43.5268 17.8487 44.4954 17.5404 45.464 17.2358C45.479 17.2841 45.4977 17.3324 45.5128 17.3807C44.5479 17.689 43.5793 17.9973 42.6145 18.3056C42.5957 18.2536 42.5769 18.2053 42.5582 18.1533Z" fill="#A17758"/>
<path d="M10.0276 7.09863C10.6884 7.8787 11.3529 8.65505 12.0136 9.43511C11.9723 9.46854 11.931 9.50569 11.8935 9.53912C11.2327 8.76277 10.5682 7.98642 9.90747 7.21007C9.94877 7.17292 9.98631 7.13949 10.0276 7.10235" fill="#A17758"/>
<path d="M7.20062 38.0933C7.98526 37.4432 8.76614 36.7895 9.55078 36.1394C9.58457 36.1766 9.61836 36.2174 9.65215 36.2583C8.86751 36.912 8.08287 37.5658 7.29823 38.2196C7.26444 38.1787 7.23066 38.1379 7.20062 38.097" fill="#A17758"/>
<path d="M36.6978 38.4683C37.3548 39.2409 38.008 40.0098 38.665 40.7825C38.6237 40.8159 38.5824 40.853 38.5411 40.8865C37.8841 40.1138 37.2271 39.3375 36.5701 38.5648C36.6114 38.5314 36.6565 38.5017 36.6978 38.4683Z" fill="#A17758"/>
<path d="M30.4357 2.84918C30.1541 3.8224 29.8725 4.79562 29.591 5.76885C29.5422 5.75399 29.4896 5.73913 29.4408 5.72427C29.7224 4.74733 30.0039 3.7704 30.2855 2.79346C30.3343 2.81203 30.3869 2.82689 30.4357 2.84546" fill="#A17758"/>
<path d="M18.1255 45.1509C18.4071 44.1776 18.6849 43.2044 18.9664 42.2312C19.0152 42.2461 19.0641 42.2609 19.1166 42.2721C18.835 43.2453 18.5572 44.2185 18.2757 45.1917C18.2231 45.1769 18.1743 45.162 18.1255 45.1509Z" fill="#A17758"/>
<path d="M5.1846 26.3216C4.2085 26.4367 3.23239 26.5519 2.26004 26.6671C2.25253 26.6188 2.24878 26.5705 2.24127 26.5222C3.21738 26.4033 4.18973 26.2807 5.16208 26.1619C5.16959 26.2139 5.1771 26.2696 5.1846 26.3216Z" fill="#A17758"/>
<path d="M5.80781 18.8849C4.81669 18.6063 3.82556 18.3314 2.8382 18.0528C2.85321 18.0045 2.86448 17.9562 2.87949 17.908C3.86686 18.1828 4.85798 18.454 5.84535 18.7289C5.83409 18.7809 5.82282 18.8329 5.81156 18.8849" fill="#A17758"/>
<path d="M38.1019 6.75307C37.4787 7.53685 36.8555 8.31692 36.236 9.1007C36.1947 9.06727 36.1534 9.03755 36.1121 9.00412C36.7316 8.22034 37.3548 7.43656 37.9742 6.65649C38.0155 6.68993 38.0606 6.71964 38.1056 6.75307" fill="#A17758"/>
<path d="M7.56104 33.3052C6.66753 33.7992 5.77402 34.2895 4.8805 34.7836C4.85423 34.739 4.82795 34.6907 4.80542 34.6461C5.69893 34.1521 6.59244 33.6618 7.48595 33.1677C7.51223 33.2123 7.53851 33.2606 7.56479 33.3052" fill="#A17758"/>
<path d="M25.8705 5.09261C25.9569 4.08967 26.0432 3.08302 26.1296 2.08008C26.1784 2.08379 26.2272 2.08751 26.2798 2.09122C26.1934 3.09788 26.1071 4.10082 26.0245 5.10747C25.9757 5.10376 25.9231 5.10004 25.8743 5.09633" fill="#A17758"/>
<path d="M22.2965 45.8567C22.3791 44.8723 22.4655 43.8879 22.548 42.9036C22.6006 42.9073 22.6532 42.911 22.7057 42.9147C22.6194 43.8954 22.533 44.876 22.4467 45.8567C22.3979 45.8567 22.3453 45.8567 22.2965 45.8567Z" fill="#A17758"/>
<path d="M44.0261 34.1593L41.2892 32.7701C41.3118 32.7218 41.338 32.6735 41.3606 32.6289C42.2729 33.0932 43.1851 33.5576 44.0974 34.0182C44.0749 34.0665 44.0486 34.111 44.0261 34.1593Z" fill="#A17758"/>
<path d="M21.7183 2.15454C21.8385 3.13891 21.9586 4.12328 22.0787 5.10764C22.0262 5.11507 21.9736 5.11879 21.921 5.12622C21.8009 4.14185 21.6845 3.15377 21.5644 2.1694C21.617 2.16568 21.6658 2.15826 21.7146 2.15454" fill="#A17758"/>
<path d="M43.3541 21.6598C44.3564 21.5484 45.3588 21.4332 46.3612 21.3218C46.365 21.3701 46.3725 21.4146 46.3762 21.4629C45.3738 21.5818 44.3752 21.7007 43.3766 21.8195C43.3691 21.7638 43.3616 21.7118 43.3541 21.6598Z" fill="#A17758"/>
<path d="M43.4479 25.5601C44.4315 25.6455 45.4151 25.7309 46.395 25.8164C46.3912 25.8609 46.3875 25.9092 46.3837 25.9538C45.4001 25.8758 44.4128 25.7978 43.4291 25.7198C43.4366 25.6641 43.4404 25.6121 43.4479 25.5601Z" fill="#A17758"/>
<path d="M26.8354 45.7862C26.7152 44.8167 26.5951 43.8472 26.4787 42.8814C26.5313 42.8739 26.5838 42.8702 26.6364 42.8628C26.7528 43.8323 26.8691 44.8018 26.9893 45.775C26.9405 45.7788 26.8879 45.7862 26.8391 45.7899" fill="#A17758"/>
</g>
<defs>
<clipPath id="clip0_389_923">
<rect width="168.96" height="48" fill="white"/>
</clipPath>
</defs>
</svg>
